<svg xmlns="http://www.w3.org/2000/svg" xmlns:xlink="http://www.w3.org/1999/xlink" width="1255.146" height="648.483" viewBox="0 0 1255.146 648.483">
  <defs>
    <linearGradient id="linear-gradient" x1="1" y1="0.5" x2="0" y2="0.5" gradientUnits="objectBoundingBox">
      <stop offset="0" stop-color="#919dff"/>
      <stop offset="1" stop-color="#ffe5f5"/>
    </linearGradient>
    <linearGradient id="linear-gradient-2" x1="0.821" y1="-0.076" x2="0.28" y2="0.824" xlink:href="#linear-gradient"/>
    <linearGradient id="linear-gradient-3" x1="1.921" y1="-0.124" x2="0.369" y2="0.848" xlink:href="#linear-gradient"/>
    <linearGradient id="linear-gradient-5" y1="0.5" x2="0" y2="0.5" xlink:href="#linear-gradient"/>
    <linearGradient id="linear-gradient-6" x1="0.807" y1="-0.087" x2="0.456" y2="0.838" xlink:href="#linear-gradient"/>
    <linearGradient id="linear-gradient-8" x1="1.077" y1="1.002" x2="-1.695" y2="-0.866" xlink:href="#linear-gradient"/>
    <linearGradient id="linear-gradient-9" x1="0.138" y1="-0.212" x2="0.651" y2="0.986" xlink:href="#linear-gradient"/>
    <linearGradient id="linear-gradient-10" x1="0.999" y1="0.499" x2="0" y2="0.499" xlink:href="#linear-gradient"/>
    <linearGradient id="linear-gradient-11" y1="0.501" x2="0" y2="0.501" xlink:href="#linear-gradient"/>
  </defs>
  <g id="Group_1215" data-name="Group 1215" transform="translate(1.415 0)">
    <path id="Path_3336" data-name="Path 3336" d="M870.689,75.947S694.946,37.3,560.484,141.914C374.514,286.57,497.962,498.541,282.556,481.3,54.737,463.065,10.79,694.733,10.79,694.733h859.9Z" transform="translate(383.042 -68.968)" fill="url(#linear-gradient)"/>
    <g id="Group_1200" data-name="Group 1200" transform="translate(962.087 229.755)">
      <path id="Path_3337" data-name="Path 3337" d="M147.378,567.448S192.3,205.313,120.505,184.188c-76.9-22.632-14.07,383.259-14.07,383.259Z" transform="translate(-82.255 -183.276)" fill="url(#linear-gradient-2)"/>
      <path id="Path_3338" data-name="Path 3338" d="M105.993,206.58s9.246,115.11-4.141,244.029" transform="translate(-69.491 -159.74)" fill="none" stroke="#fff" stroke-linecap="round" stroke-miterlimit="10" stroke-width="1"/>
    </g>
    <g id="Group_1201" data-name="Group 1201" transform="translate(1085.278 333.356)">
      <path id="Path_3339" data-name="Path 3339" d="M10.79,513.843c.221,0,10.733-220.452,99.453-279.023V513.843Z" transform="translate(-10.79 -234.82)" fill="url(#linear-gradient-3)"/>
      <path id="Path_3340" data-name="Path 3340" d="M57.429,285.78s-28.823,66.469-40.059,176.6" transform="translate(28.799 -183.352)" fill="none" stroke="#fff" stroke-linecap="round" stroke-miterlimit="10" stroke-width="1"/>
    </g>
    <g id="Group_1216" data-name="Group 1216" transform="translate(1154.278 333.356)">
      <path id="Path_3339-2" data-name="Path 3339" d="M10.79,513.843c.221,0,10.733-220.452,99.453-279.023V513.843Z" transform="translate(-10.79 -234.82)" fill="url(#linear-gradient-3)"/>
      <path id="Path_3340-2" data-name="Path 3340" d="M57.429,285.78s-28.823,66.469-40.059,176.6" transform="translate(28.799 -183.352)" fill="none" stroke="#fff" stroke-linecap="round" stroke-miterlimit="10" stroke-width="1"/>
    </g>
    <path id="Path_3341" data-name="Path 3341" d="M280.773,427.8s-20.482-116.517-58.108-107.251C179.913,331.076,255.85,427.8,255.85,427.8h24.924Z" transform="translate(504.337 184.584)" fill="url(#linear-gradient-5)"/>
    <path id="Path_3342" data-name="Path 3342" d="M57.057,489.291S67.73,324.373,114.2,259.13c0,0,47.455,91.634-12.542,229.236l-44.6.925Z" transform="translate(959.721 123.088)" fill="url(#linear-gradient-6)"/>
    <g id="Group_1202" data-name="Group 1202" transform="translate(0 634.167)">
      <path id="Path_3343" data-name="Path 3343" d="M585.874,384.48l-6.794,6.814,6.794,6.794" transform="translate(-543.383 -384.48)" fill="none" stroke="#b8bfd1" stroke-miterlimit="10" stroke-width="2"/>
      <path id="Path_3344" data-name="Path 3344" d="M594.764,384.48l-6.814,6.814,6.814,6.794" transform="translate(-570.102 -384.48)" fill="none" stroke="#b8bfd1" stroke-miterlimit="10" stroke-width="2" opacity="0.5"/>
      <path id="Path_3345" data-name="Path 3345" d="M603.644,384.48l-6.814,6.814,6.814,6.794" transform="translate(-596.83 -384.48)" fill="none" stroke="#b8bfd1" stroke-miterlimit="10" stroke-width="2" opacity="0.23"/>
    </g>
    <path id="Path_3347" data-name="Path 3347" d="M288.389,243.425h0a6.276,6.276,0,0,0,1.025-8.844l-5.367-6.794c-2.151-2.734-4.985-4.3-7.718-2.151,0,0-5.065,5-8.422,3.457-3.819-1.749-11.216-9.949-14.874-15.879-2.573-4.161,5.648-10.512,5.648-10.512,2.734-2.151,1.809-4.723-.342-7.457l-5.367-6.794a6.276,6.276,0,0,0-8.844-1.025h0c-21.285,16.884,15.879,70.911,44.259,55.977Z" transform="translate(437.608 49.29)" fill="#cfdbff"/>
    <rect id="Rectangle_911" data-name="Rectangle 911" width="174.384" height="32.2" transform="translate(275.887 580.179)" fill="#8885f7"/>
    <rect id="Rectangle_912" data-name="Rectangle 912" width="135.793" height="18.813" transform="translate(295.162 561.366)" fill="#b4b3fc"/>
    <g id="Group_1206" data-name="Group 1206" transform="translate(500.231 387.33)">
      <path id="Path_3348" data-name="Path 3348" d="M321.143,392.332h197.37a4.038,4.038,0,0,0,3.9-5.105L482.679,241.039a12.661,12.661,0,0,0-12.225-9.339H273.085a4.038,4.038,0,0,0-3.9,5.105l39.734,146.188A12.661,12.661,0,0,0,321.143,392.332Z" transform="translate(-262.678 -231.7)" fill="#8385fc"/>
      <path id="Path_3349" data-name="Path 3349" d="M325.153,392.332h197.37a4.039,4.039,0,0,0,3.9-5.105L486.689,241.039a12.661,12.661,0,0,0-12.225-9.339H277.1a4.039,4.039,0,0,0-3.9,5.105l39.734,146.188A12.661,12.661,0,0,0,325.153,392.332Z" transform="translate(-273.046 -231.7)" fill="url(#linear-gradient)"/>
      <path id="Path_3350" data-name="Path 3350" d="M331.721,285.66l29.317,118.568A18.912,18.912,0,0,0,379.4,418.592h24.1a4.25,4.25,0,0,1,4.249,4.249h0a4.25,4.25,0,0,1-4.249,4.249H340.092a16.635,16.635,0,0,1-16.173-12.748L293.541,287.705a4.356,4.356,0,0,1,4.233-5.375H327.5a4.34,4.34,0,0,1,4.218,3.314Z" transform="translate(-186.526 -202.054)" fill="url(#linear-gradient-8)"/>
    </g>
    <path id="Path_3351" data-name="Path 3351" d="M17.894,387.848h1033.27V373.64H17.894a7.111,7.111,0,0,0-7.1,7.1h0a7.111,7.111,0,0,0,7.1,7.1Z" transform="translate(202.567 238.268)" fill="#0e225c"/>
    <path id="Path_3352" data-name="Path 3352" d="M73.886,198.732a33.454,33.454,0,0,1,9.829,60.118l.08,15.075L73.262,263.513a33.479,33.479,0,1,1,.623-64.781Zm1.829,38.25a2.989,2.989,0,1,0-2.09-3.658,3,3,0,0,0,2.09,3.658Zm-11.376-3.1a2.989,2.989,0,1,0-2.09-3.658A2.973,2.973,0,0,0,64.338,233.886Zm-11.376-3.1a2.989,2.989,0,1,0-2.09-3.658A2.973,2.973,0,0,0,52.962,230.791Z" transform="translate(1044.255 60.899)" fill="#fff"/>
    <g id="Group_1208" data-name="Group 1208" transform="translate(702.023 73.075)">
      <path id="Path_3353" data-name="Path 3353" d="M268.319,126.723l-.985-4.241A19.245,19.245,0,0,0,244.24,108.05h0a19.245,19.245,0,0,0-14.431,23.094l-.04-.161c2.151,9.829,6.914,15.2,13.989,19.617l3.678,2.311a20.523,20.523,0,0,1,9.105,12.763l1.749,7.618" transform="translate(-224.828 -103.074)" fill="#fff"/>
      <g id="Group_1207" data-name="Group 1207">
        <path id="Path_3354" data-name="Path 3354" d="M261.568,179.885a4.47,4.47,0,0,0,3.357-5.367l-1.749-7.618a24.881,24.881,0,0,0-11.095-15.557l-3.678-2.311c-5.769-3.6-10.01-7.819-11.959-16.663h0a14.768,14.768,0,1,1,28.783-6.633l.985,4.241a4.476,4.476,0,1,0,8.723-2.01l-.985-4.241a23.737,23.737,0,0,0-46.309,10.452h0c2.211,10.11,6.995,16.843,16,22.471l3.678,2.311a15.963,15.963,0,0,1,7.115,9.969l1.749,7.618a4.47,4.47,0,0,0,5.367,3.357Z" transform="translate(-227.081 -105.324)" fill="#cfdbff"/>
        <path id="Path_3355" data-name="Path 3355" d="M230.416,151.155a4.91,4.91,0,1,0,3.678-5.889A4.892,4.892,0,0,0,230.416,151.155Z" transform="translate(-198.583 -65.117)" fill="#cfdbff"/>
      </g>
    </g>
    <g id="Group_1210" data-name="Group 1210" transform="translate(962.202 98.91)">
      <path id="Path_3356" data-name="Path 3356" d="M107.995,128.829l-.04.121c-1.93,6.392-.9,11.035,1.749,15.919l1.387,2.553a13.711,13.711,0,0,1,1.105,10.412l-1.487,5.025,4.623-5.206a16.487,16.487,0,0,0-1.628-11.658l-1.387-2.553c-2.171-4-3.256-7.859-1.487-13.648a9.877,9.877,0,1,1,18.954,5.568l-.824,2.794a2.985,2.985,0,0,0,.884,3.1l1.99-2.251.824-2.794a12.884,12.884,0,0,0-24.682-7.4Z" transform="translate(-103.948 -116.665)" fill="#fff"/>
      <g id="Group_1209" data-name="Group 1209">
        <path id="Path_3357" data-name="Path 3357" d="M106.639,129.478l-.1.342c-1.909,6.472-1.286,11.859,2.03,17.989l1.387,2.553a10.646,10.646,0,0,1,.864,8.14l-1.487,5.025a3,3,0,1,0,5.748,1.688l1.487-5.025c.1-.342.181-.7.281-1.045a16.487,16.487,0,0,0-1.628-11.658l-1.387-2.553c-2.171-4-3.256-7.859-1.487-13.648a9.877,9.877,0,0,1,18.954,5.568l-.824,2.794a2.985,2.985,0,0,0,.884,3.1,2.757,2.757,0,0,0,1.146.623,2.981,2.981,0,0,0,3.718-2.03l.824-2.794a15.875,15.875,0,0,0-30.411-9.125Z" transform="translate(-105.467 -118.178)" fill="#fff"/>
        <path id="Path_3358" data-name="Path 3358" d="M118.129,146.671a3.288,3.288,0,1,0,4.08-2.231A3.268,3.268,0,0,0,118.129,146.671Z" transform="translate(-117.52 -91.794)" fill="#fff"/>
      </g>
    </g>
    <g id="Group_1211" data-name="Group 1211" transform="translate(1061.379 139.717)">
      <path id="Path_3359" data-name="Path 3359" d="M55.586,180.466l40.6-11.015L88.971,142.86l-16.7,18.813-23.9-7.779Z" transform="translate(-48.37 -134.056)" fill="#fff"/>
      <path id="Path_3360" data-name="Path 3360" d="M69.645,142.58l15.095-4.1,2.774,10.211-12.4,14.029-17.788-5.829L54.55,146.7Z" transform="translate(-52.118 -138.48)" fill="#fff"/>
      <rect id="Rectangle_913" data-name="Rectangle 913" width="23.798" height="0.864" transform="matrix(-0.965, 0.262, -0.262, -0.965, 30.496, 6.106)" fill="#a6abfd"/>
      <rect id="Rectangle_914" data-name="Rectangle 914" width="23.798" height="0.864" transform="matrix(-0.965, 0.262, -0.262, -0.965, 31.653, 10.38)" fill="#a6abfd"/>
    </g>
    <path id="Path_3361" data-name="Path 3361" d="M43,107.576a5.306,5.306,0,1,0,5.306-5.306A5.3,5.3,0,0,0,43,107.576Z" transform="translate(1066.377 -35.334)" fill="none" stroke="#fff" stroke-linecap="round" stroke-miterlimit="10" stroke-width="1"/>
    <path id="Path_3362" data-name="Path 3362" d="M153.56,145.536a5.306,5.306,0,1,0,5.306-5.306A5.3,5.3,0,0,0,153.56,145.536Z" transform="translate(733.596 3.004)" fill="none" stroke="#fff" stroke-linecap="round" stroke-miterlimit="10" stroke-width="1"/>
    <path id="Path_3363" data-name="Path 3363" d="M221.8,179.836a5.306,5.306,0,1,0,5.306-5.306A5.3,5.3,0,0,0,221.8,179.836Z" transform="translate(528.196 37.646)" fill="none" stroke="#b0b1fb" stroke-linecap="round" stroke-miterlimit="10" stroke-width="1"/>
    <g id="Group_1212" data-name="Group 1212" transform="translate(769.243 363.023)">
      <path id="Path_3364" data-name="Path 3364" d="M257.59,498.936s3.517-180.354-68.881-249.356c0,0-33.707,85.041,17.306,249.356H257.57Z" transform="translate(-177.786 -249.58)" fill="url(#linear-gradient-9)"/>
      <path id="Path_3365" data-name="Path 3365" d="M194.03,276.68s-5.286,72.258,20.381,179.932" transform="translate(-166.324 -222.21)" fill="none" stroke="#fff" stroke-linecap="round" stroke-miterlimit="10" stroke-width="1"/>
    </g>
    <g id="Group_1214" data-name="Group 1214" transform="translate(693.056 272.631)">
      <path id="Path_3366" data-name="Path 3366" d="M135.32,235.305l1.094,14.3.365,4.693,1.157,15.079,31.584.571-3.583-31.235-1.871-16.109-.888-7.785Z" transform="translate(109.553 -126.885)" fill="#fa8fa4"/>
      <path id="Path_3367" data-name="Path 3367" d="M138.476,246.738l.365,4.677c18.583,0,27.1-25.543,27.763-27.6l-.476-4.091a56.12,56.12,0,0,1-27.668,27.018Z" transform="translate(107.491 -124.016)" fill="#fa8098"/>
      <path id="Path_3368" data-name="Path 3368" d="M338.418,271.287s-14.746-16.395-26.59-17.631c-4.36-.46,3.044,8.784,3.044,8.784h-49.8s1.855,6.12,5.549,8.847S314.856,286,314.856,286L338.4,271.287Z" transform="translate(-265.07 -104.154)" fill="#fa8fa4"/>
      <path id="Path_3369" data-name="Path 3369" d="M151.437,195.446c-4.3,3.282-11.448,7.008-12.478,12.3-.92,4.741,8.657,20.5,4.122,26.59-8.419,11.3,8.911,27.256,15.047,31.489,14.777,10.179,52.688-19.8,39.861-58.681-9.751-29.539-34.105-21.2-46.568-11.7Z" transform="translate(72.808 -143.392)" fill="#fa8fa4"/>
      <path id="Path_3370" data-name="Path 3370" d="M210.121,195.957S170.34,223.5,150.711,211.78s-1-34.85-1-34.85,4.36,8.1,18.646,3.409c14.3-4.709,40.717-7.658,41.748,15.618Z" transform="translate(58.804 -149.072)" fill="#0a0a0f"/>
      <path id="Path_3371" data-name="Path 3371" d="M134.668,190.09s9.386-13.493,21.976-5.581c9.577,6.025,7.5,39.449-1.142,52.181C155.5,236.689,155.28,197.4,134.668,190.09Z" transform="translate(117.15 -146.091)" fill="#0a0a0f"/>
      <path id="Path_3372" data-name="Path 3372" d="M139.467,195.507s7.864,18.963,16.854,23.7c0,0-.809,10.274,8.451,10.306,0,0-2.806-3.234.19-10.417a23.95,23.95,0,0,0,1.475-4.884c1.808-9.83-6.754-28.017-16.363-26.97C140.482,188.292,139.467,195.507,139.467,195.507Z" transform="translate(105.818 -143.057)" fill="#0a0a0f"/>
      <path id="Path_3373" data-name="Path 3373" d="M133.923,223.463s6.786.761,9.529-4.8c4.915-9.926-5.867-15.9-9.244-10.623Z" transform="translate(136.572 -132.008)" fill="#fa8fa4"/>
      <path id="Path_3374" data-name="Path 3374" d="M179.754,220.32s-3.5,16.648-12.637,13.255c-6.12-2.283-9.957-11.384-9.957-11.384l22.594-1.871Z" transform="translate(64.691 -123.665)" fill="#fff"/>
      <path id="Path_3375" data-name="Path 3375" d="M158.188,210.594c.127,1.712.793,3.076,1.49,3.013.7-.048,1.142-1.49,1.015-3.2s-.793-3.076-1.49-3.013C158.505,207.438,158.061,208.881,158.188,210.594Z" transform="translate(82.134 -131.237)" fill="#2e112e"/>
      <path id="Path_3376" data-name="Path 3376" d="M171.128,211.744c.127,1.712.793,3.076,1.49,3.013.682-.048,1.142-1.49,1.015-3.2s-.793-3.076-1.49-3.013C171.445,208.588,171,210.031,171.128,211.744Z" transform="translate(48.677 -130.563)" fill="#2e112e"/>
      <path id="Path_3377" data-name="Path 3377" d="M235.19,448.292s44.316-141.463-1.443-172.889c-45.759-31.442-75.98-37.4-122.8-18.535S88.574,448.292,88.574,448.292Z" transform="translate(108.844 -108.54)" fill="#173796"/>
      <path id="Path_3378" data-name="Path 3378" d="M321.794,320.538l-73,66.244A41.25,41.25,0,0,1,185.04,376.3l-47.82-85.921,23.545-14.714s47.091,55.177,55.177,50.769S258.7,245.954,349.4,246.16c43.476.1-27.6,74.394-27.6,74.394Z" transform="translate(-87.417 -108.534)" fill="#173796"/>
      <path id="Path_3379" data-name="Path 3379" d="M120.522,264.606s45.9,35.722,73.76,105.487c12.891,32.282-10.782,67.4-45.537,67.4H46.493l1.934-31.727,71.382-36.42s-74.664-65.008.713-104.757Z" transform="translate(222.068 -97.742)" fill="#173796"/>
      <path id="Path_3380" data-name="Path 3380" d="M167.42,223.756s-4.249-37.5-28.54-44.76c0,0,6.913-5.9,15.253-1.142,0,0,19.2,10.338,22.515,46.647l-9.228-.745Z" transform="translate(96.781 -149.616)" fill="#6970fb"/>
      <g id="Group_1213" data-name="Group 1213" transform="translate(236.275 85.874)">
        <path id="Path_3381" data-name="Path 3381" d="M144.736,245.057a50.735,50.735,0,0,0,16.934-10.924c8.673-8.451,8.895-19.946,8.911-20.454l-3.536-.159c0,.111-.587,11-8.229,18.44a43.046,43.046,0,0,1-16.315,10.1l.951,3.409s.523-.159,1.268-.412Z" transform="translate(-139.166 -213.52)" fill="#0a0a0f"/>
        <path id="Path_3382" data-name="Path 3382" d="M164.744,231.435a3.971,3.971,0,0,1-2.394,4.646A3.335,3.335,0,0,1,160.1,229.8c1.744-.618,4.011-.1,4.646,1.649Z" transform="translate(-157.89 -204.132)" fill="#0a0a0f"/>
      </g>
      <ellipse id="Ellipse_152" data-name="Ellipse 152" cx="15.665" cy="17.489" rx="15.665" ry="17.489" transform="translate(256.939 63.597)" fill="#173796"/>
      <ellipse id="Ellipse_153" data-name="Ellipse 153" cx="13.953" cy="15.57" rx="13.953" ry="15.57" transform="translate(263.693 65.515)" fill="#8885f7"/>
      <path id="Path_3383" data-name="Path 3383" d="M181.474,253.831l-11.448-16.6-19.883,14.159-10.591-10.2L129.5,253.5l11.035,12.843,9.624-10.8,8.673,12.573s14.143-4.582,22.673-14.286Z" transform="translate(106.795 -113.763)" fill="#fff"/>
      <path id="Path_3384" data-name="Path 3384" d="M146.6,306.99l24.227,38.228a10.273,10.273,0,0,1-5.169,15.158l-70.7,25.718" transform="translate(170.637 -72.915)" fill="#173796" stroke="#0a0a0f" stroke-miterlimit="10" stroke-width="1"/>
      <path id="Path_3385" data-name="Path 3385" d="M192.583,381.516l-2.949-21.326s-36.4,10.512-38.735,12.462-8.958,8.879-8.958,8.879H192.6Z" transform="translate(75.978 -41.763)" fill="#fa8fa4"/>
      <line id="Line_104" data-name="Line 104" x2="1.855" y2="12.018" transform="translate(342.162 0)" fill="none" stroke="#fff" stroke-linecap="round" stroke-miterlimit="10" stroke-width="1"/>
    </g>
    <line id="Line_105" data-name="Line 105" y1="2.452" x2="15.235" transform="translate(1007.915 188.076)" fill="none" stroke="#fff" stroke-linecap="round" stroke-miterlimit="10" stroke-width="1"/>
    <line id="Line_106" data-name="Line 106" x2="2.352" y2="15.256" transform="translate(628.112 263.43)" fill="none" stroke="#b0b1fb" stroke-linecap="round" stroke-miterlimit="10" stroke-width="1"/>
    <line id="Line_107" data-name="Line 107" y1="2.432" x2="15.256" transform="translate(621.6 269.842)" fill="none" stroke="#b0b1fb" stroke-linecap="round" stroke-miterlimit="10" stroke-width="1"/>
    <rect id="Rectangle_915" data-name="Rectangle 915" width="12.281" height="12.281" transform="translate(1140.049 209.945)" fill="none" stroke="#fff" stroke-linecap="round" stroke-miterlimit="10" stroke-width="1"/>
    <rect id="Rectangle_916" data-name="Rectangle 916" width="12.281" height="12.281" transform="matrix(-0.757, 0.654, -0.654, -0.757, 834.096, 73.712)" fill="none" stroke="#9da5fe" stroke-linecap="round" stroke-miterlimit="10" stroke-width="1"/>
    <g id="Group_1217" data-name="Group 1217" transform="translate(140.185 55.167)">
      <path id="Path_3386" data-name="Path 3386" d="M234.7,334.67h35.243a3.936,3.936,0,0,1,3.939,3.939v23.047a25.547,25.547,0,0,1-4.5,14.491l-4.3,6.274a7.072,7.072,0,0,1-5.843,3.078H245.457a7.088,7.088,0,0,1-5.869-3.117l-5.061-7.5a21.974,21.974,0,0,1-3.756-12.261V338.609a3.936,3.936,0,0,1,3.939-3.939Z" transform="translate(445.38 171.713)" fill="#fff"/>
      <path id="Path_3387" data-name="Path 3387" d="M219.57,365.928H239.2a12.039,12.039,0,0,0,0-24.078H219.57v24.065Zm19.63-18.756a6.73,6.73,0,1,1,0,13.461H224.879V347.185H239.2Z" transform="translate(482.628 173.898)" fill="#fff"/>
      <path id="Path_3388" data-name="Path 3388" d="M251.857,331.694s7.252-5.778,4.5-14.817-8.661-15.013-4.5-21.417c0,0-10.474,1.552-6.691,12.156s9.9,17.23,6.691,24.091Z" transform="translate(444.576 159.78)" fill="url(#linear-gradient-10)"/>
      <path id="Path_3389" data-name="Path 3389" d="M240.211,309.343s7.1,10.343,0,18.117c-8.413,9.221-4.7,13.448-4.7,13.448s2.6-4.1,9.535-8.635c6.065-3.965,10.617-16.956-4.839-22.943Z" transform="translate(463.435 164.001)" fill="url(#linear-gradient-11)"/>
    </g>
  </g>
</svg>
