<svg xmlns="http://www.w3.org/2000/svg" xmlns:xlink="http://www.w3.org/1999/xlink" width="198" height="168" viewBox="0 0 198 168">
  <defs>
    <linearGradient id="linear-gradient" x1="0.95" y1="0.328" x2="0.388" y2="0.679" gradientUnits="objectBoundingBox">
      <stop offset="0" stop-color="#ffc444"/>
      <stop offset="1" stop-color="#f36f56"/>
    </linearGradient>
    <linearGradient id="linear-gradient-2" x1="0.935" y1="0.335" x2="0.273" y2="0.559" xlink:href="#linear-gradient"/>
    <linearGradient id="linear-gradient-3" x1="0.793" y1="0.026" x2="0.169" y2="0.979" gradientUnits="objectBoundingBox">
      <stop offset="0" stop-color="#ff9085"/>
      <stop offset="1" stop-color="#fb6fbb"/>
    </linearGradient>
    <filter id="Rectangle_1866" x="0" y="0" width="198" height="168" filterUnits="userSpaceOnUse">
      <feOffset dy="3" input="SourceAlpha"/>
      <feGaussianBlur stdDeviation="3" result="blur"/>
      <feFlood flood-opacity="0.502"/>
      <feComposite operator="in" in2="blur"/>
      <feComposite in="SourceGraphic"/>
    </filter>
    <clipPath id="clip-path">
      <path id="Path_6888" data-name="Path 6888" d="M1005.924,882.823a9.941,9.941,0,0,1-3.273-3.363c-1.818-5-5.829-14.128-3.765-19.355.353-.892,4.7-.4,5.543-1.051,2.847-.36,3.857-.308,6.395-1.98,7.494-4.934-.483-21.439,15.032-21.226,11.365.156,18.905,6.563,23.047-9.8s26.4-41.351,39.63-24.645c7.593,9.588-6.716,19.961-5.022,31.634,1.61,11.092-5.009,17.615-17.018,20.013s-8.042,8.571-8.073,18.6c-.037,12.046-17.415,8.478-25.3,6.146C1026.775,875.92,1009.345,875.421,1005.924,882.823Z" transform="translate(-998.31 -795.883)" fill="url(#linear-gradient)"/>
    </clipPath>
    <clipPath id="clip-path-2">
      <path id="Path_6895" data-name="Path 6895" d="M940.484,361.573a8.605,8.605,0,0,1-3.9-1.165c-3.483-3.013-10.37-8.231-11.015-13.058-.11-.824,3.385-2.286,3.751-3.133,2-1.473,2.788-1.86,4-4.2,3.589-6.895-9.41-16.019,2.421-22.4,8.665-4.676,17.073-3.007,13.306-17.137s2.534-42.426,19.594-35.366c9.79,4.052,3.336,17.937,9.544,26.054,5.9,7.714,3.64,15.443-4.436,22.322s-2.469,9.879,1.738,17.481c5.054,9.131-9.6,13.761-16.55,15.323C953.351,347.555,939.951,354.529,940.484,361.573Z" transform="translate(-925.572 -264.006)" fill="url(#linear-gradient-2)"/>
    </clipPath>
    <clipPath id="clip-path-3">
      <path id="Path_6904" data-name="Path 6904" d="M1273.518,406.348q-7.988-2.091-15.916-4.554c-.1.07-.572-11.894,5.7-17.448,12.373-10.736,6.112-22.288,4.689-28.88-2.376-9.33.464-18.836,9.6-17.974,10.153.759,13.833-15.778,13.681-31.207-.6-7.583,7.4-15.82,14.623-17.1,7.39-1.494,14,3.962,14.547,19.005,1.414,17.5-12.233,26.459-17.814,34.54-5.488,7.932,4.36,15.927-5,22.46-7.91,5.849-17.483,9.625-15.092,18.332C1285.024,392.141,1283.466,398.794,1273.518,406.348Z" transform="translate(-1257.555 -288.942)" fill="url(#linear-gradient-3)"/>
    </clipPath>
    <linearGradient id="linear-gradient-7" x1="3.627" y1="0.822" x2="2.772" y2="0.447" gradientUnits="objectBoundingBox">
      <stop offset="0" stop-color="#444b8c"/>
      <stop offset="1" stop-color="#26264f"/>
    </linearGradient>
    <linearGradient id="linear-gradient-8" x1="-1.686" y1="2.153" x2="1.466" y2="2.213" xlink:href="#linear-gradient-7"/>
    <linearGradient id="linear-gradient-9" x1="0.444" y1="-0.121" x2="0.712" y2="2.235" xlink:href="#linear-gradient"/>
    <linearGradient id="linear-gradient-10" x1="0.467" y1="0.359" x2="1.118" y2="2.176" gradientUnits="objectBoundingBox">
      <stop offset="0" stop-color="#e38ddd"/>
      <stop offset="1" stop-color="#9571f6"/>
    </linearGradient>
    <linearGradient id="linear-gradient-11" x1="-0.059" y1="0.043" x2="1.599" y2="1.292" gradientUnits="objectBoundingBox">
      <stop offset="0" stop-color="#311944"/>
      <stop offset="1" stop-color="#893976"/>
    </linearGradient>
    <linearGradient id="linear-gradient-12" x1="1.025" y1="-0.097" x2="0.256" y2="0.788" xlink:href="#linear-gradient-3"/>
    <linearGradient id="linear-gradient-13" x1="-16.701" y1="-15.407" x2="-17.536" y2="-13.594" xlink:href="#linear-gradient-3"/>
    <linearGradient id="linear-gradient-14" x1="-3.812" y1="0.5" x2="-2.812" y2="0.5" xlink:href="#linear-gradient-11"/>
    <linearGradient id="linear-gradient-15" x1="-3.794" y1="1.263" x2="-3.218" y2="0.492" xlink:href="#linear-gradient-11"/>
    <clipPath id="clip-path-4">
      <path id="Path_6940" data-name="Path 6940" d="M890.34,1060.486c0-20.145,18.707-36.476,41.782-36.476s41.782,16.331,41.782,36.476a32.405,32.405,0,0,1-3.153,13.919,28.752,28.752,0,0,1,.6,4.949c.534,15.685-11.957,27.77-27.812,27a31.206,31.206,0,0,1-21.625-10.485C903.776,1091.89,890.34,1077.559,890.34,1060.486Z" transform="translate(-890.34 -1024.01)" fill="none"/>
    </clipPath>
    <linearGradient id="linear-gradient-16" x1="48.818" y1="8.497" x2="48.067" y2="9.234" xlink:href="#linear-gradient"/>
    <linearGradient id="linear-gradient-17" x1="5.093" y1="0.01" x2="5.216" y2="0.655" xlink:href="#linear-gradient-10"/>
    <linearGradient id="linear-gradient-18" x1="0.194" y1="1.152" x2="1.803" y2="-2.353" xlink:href="#linear-gradient"/>
    <linearGradient id="linear-gradient-19" x1="0.093" y1="0.366" x2="6.103" y2="2.135" gradientUnits="objectBoundingBox">
      <stop offset="0" stop-color="#24abb5"/>
      <stop offset="0.58" stop-color="#40cf9f"/>
      <stop offset="1" stop-color="#3fcea0"/>
    </linearGradient>
    <linearGradient id="linear-gradient-20" x1="22.835" y1="0.168" x2="22.145" y2="1.411" xlink:href="#linear-gradient"/>
    <linearGradient id="linear-gradient-21" x1="-4.876" y1="0.035" x2="-5.573" y2="1.461" xlink:href="#linear-gradient-10"/>
    <linearGradient id="linear-gradient-22" x1="15.518" y1="-2.95" x2="16.699" y2="-1.403" xlink:href="#linear-gradient"/>
    <linearGradient id="linear-gradient-23" x1="-0.182" y1="-0.266" x2="1.071" y2="1.272" xlink:href="#linear-gradient-7"/>
    <linearGradient id="linear-gradient-24" x1="165.349" y1="-26.523" x2="179.671" y2="-12.732" xlink:href="#linear-gradient"/>
    <linearGradient id="linear-gradient-25" x1="-1.366" y1="-2.294" x2="1.928" y2="2.397" xlink:href="#linear-gradient-7"/>
    <linearGradient id="linear-gradient-26" x1="1.977" y1="0.253" x2="2.731" y2="0.79" xlink:href="#linear-gradient-10"/>
    <linearGradient id="linear-gradient-27" x1="-7.563" y1="0.11" x2="-8.839" y2="2.912" xlink:href="#linear-gradient-10"/>
    <linearGradient id="linear-gradient-28" x1="0.329" y1="0.554" x2="-0.255" y2="0.738" gradientUnits="objectBoundingBox">
      <stop offset="0" stop-color="#fcb148"/>
      <stop offset="0.05" stop-color="#fdba46"/>
      <stop offset="0.14" stop-color="#ffc244"/>
      <stop offset="0.32" stop-color="#ffc444"/>
      <stop offset="0.48" stop-color="#fdb946"/>
      <stop offset="0.78" stop-color="#f99c4d"/>
      <stop offset="0.87" stop-color="#f8924f"/>
      <stop offset="1" stop-color="#f8924f"/>
    </linearGradient>
    <linearGradient id="linear-gradient-29" x1="0.727" y1="0.007" x2="0.207" y2="1.135" gradientUnits="objectBoundingBox">
      <stop offset="0" stop-color="#ffdb44"/>
      <stop offset="1" stop-color="#feef06"/>
    </linearGradient>
    <linearGradient id="linear-gradient-30" x1="0.636" y1="1.231" x2="0.531" y2="0.666" xlink:href="#linear-gradient-28"/>
    <linearGradient id="linear-gradient-31" x1="0.409" y1="0.31" x2="0.858" y2="1.247" xlink:href="#linear-gradient-28"/>
    <linearGradient id="linear-gradient-32" x1="0.253" y1="0.019" x2="0.711" y2="1.039" xlink:href="#linear-gradient-29"/>
    <linearGradient id="linear-gradient-33" x1="0.464" y1="0.369" x2="1.215" y2="1.307" xlink:href="#linear-gradient-28"/>
    <linearGradient id="linear-gradient-35" x1="0.727" y1="0.007" x2="0.207" y2="1.135" xlink:href="#linear-gradient-29"/>
    <linearGradient id="linear-gradient-38" x1="0.253" y1="0.019" x2="0.711" y2="1.039" xlink:href="#linear-gradient-29"/>
    <linearGradient id="linear-gradient-39" x1="0.464" y1="0.369" x2="1.215" y2="1.306" xlink:href="#linear-gradient-28"/>
    <linearGradient id="linear-gradient-40" x1="1.021" y1="-1.083" x2="0.334" y2="1.042" xlink:href="#linear-gradient-3"/>
    <linearGradient id="linear-gradient-41" x1="1.021" y1="-15.132" x2="0.334" y2="-13.008" xlink:href="#linear-gradient-3"/>
    <linearGradient id="linear-gradient-42" x1="-0.129" y1="-0.43" x2="0.435" y2="0.424" xlink:href="#linear-gradient-7"/>
    <linearGradient id="linear-gradient-43" x1="0" y1="0.5" x2="1" y2="0.5" xlink:href="#linear-gradient-7"/>
    <linearGradient id="linear-gradient-44" x1="0.001" y1="0.501" x2="1" y2="0.501" xlink:href="#linear-gradient-3"/>
  </defs>
  <g id="Group_2348" data-name="Group 2348" transform="translate(-619 -1251)">
    <g transform="matrix(1, 0, 0, 1, 619, 1251)" filter="url(#Rectangle_1866)">
      <rect id="Rectangle_1866-2" data-name="Rectangle 1866" width="180" height="150" transform="translate(9 6)" fill="#fff"/>
    </g>
    <g id="Regular_Market_Update_" data-name="Regular Market Update " transform="translate(646.339 1257.86)">
      <g id="Layer_2" data-name="Layer 2" transform="translate(-0.003 0.003)">
        <g id="Illustration" transform="translate(0 0)">
          <g id="Mobile_expense_management" data-name="Mobile expense management">
            <path id="Path_6881" data-name="Path 6881" d="M17.723,125.9a56.3,56.3,0,0,0,9.893,8.03c25.622,17.107,54.909,12.177,63.964,10.491,14.609-2.719,26.942-4.637,37.537-14.21,24.076-21.753,22.906-67.127,4.508-95.236-2.181-3.333-20.551-30.562-49.9-34.4C83.006.48,82.47.427,82,.378,77.46-.1,49.323-2.641,26.38,16.582A68.525,68.525,0,0,0,12.91,31.866C-5.011,59.542-5.068,102.407,17.723,125.9Z" transform="translate(0.003 -0.003)" fill="#f4f7fa"/>
            <g id="Group_2335" data-name="Group 2335" transform="translate(52.867 42.147)">
              <path id="Path_6882" data-name="Path 6882" d="M1005.924,882.823a9.941,9.941,0,0,1-3.273-3.363c-1.818-5-5.829-14.128-3.765-19.355.353-.892,4.7-.4,5.543-1.051,2.847-.36,3.857-.308,6.395-1.98,7.494-4.934-.483-21.439,15.032-21.226,11.365.156,18.905,6.563,23.047-9.8s26.4-41.351,39.63-24.645c7.593,9.588-6.716,19.961-5.022,31.634,1.61,11.092-5.009,17.615-17.018,20.013s-8.042,8.571-8.073,18.6c-.037,12.046-17.415,8.478-25.3,6.146C1026.775,875.92,1009.345,875.421,1005.924,882.823Z" transform="translate(-998.31 -795.883)" fill="url(#linear-gradient)"/>
              <g id="Group_2334" data-name="Group 2334" clip-path="url(#clip-path)">
                <path id="Path_6883" data-name="Path 6883" d="M1044.061,855.885l-.021-.151a96.911,96.911,0,0,0,28.816-8.636,100.429,100.429,0,0,0,24.2-16.4c14.264-13.017,25.3-30.294,31.922-49.964l.145.049c-6.628,19.694-17.682,36.994-31.964,50.028a100.527,100.527,0,0,1-24.234,16.429,97.057,97.057,0,0,1-28.862,8.649Z" transform="translate(-1041.618 -781.532)" fill="#fcfdfe"/>
                <path id="Path_6884" data-name="Path 6884" d="M1497.842,2101.371c-8.679-6.385-24.9-11.813-36.162-12.1l0-.153c11.286.288,27.547,5.729,36.248,12.13Z" transform="translate(-1437.142 -2020.635)" fill="#fcfdfe"/>
                <path id="Path_6885" data-name="Path 6885" d="M1203.272,1552.563l-.062-.139c5.362-2.376,9.206-7.333,11.425-14.734,2.061-6.872,2.369-14.534,2.421-19.7h.153c-.053,5.174-.361,12.85-2.428,19.741C1212.548,1545.18,1208.676,1550.169,1203.272,1552.563Z" transform="translate(-1192.359 -1479.75)" fill="#fcfdfe"/>
                <path id="Path_6886" data-name="Path 6886" d="M2083.759,1628.419l-.069-.136c5.485-2.775,15.034-5.242,29.382-1.255l-.041.147C2098.73,1623.2,2089.219,1625.656,2083.759,1628.419Z" transform="translate(-2026.213 -1581.037)" fill="#fcfdfe"/>
                <path id="Path_6887" data-name="Path 6887" d="M2369.21,767.481l-.141-.058c2.05-4.994,4.639-15.641-1.049-30.841l.143-.053a53.7,53.7,0,0,1,3.378,15.451A35.165,35.165,0,0,1,2369.21,767.481Z" transform="translate(-2295.486 -739.673)" fill="#fcfdfe"/>
              </g>
            </g>
            <g id="Group_2337" data-name="Group 2337" transform="translate(49.015 13.981)">
              <path id="Path_6889" data-name="Path 6889" d="M940.484,361.573a8.605,8.605,0,0,1-3.9-1.165c-3.483-3.013-10.37-8.231-11.015-13.058-.11-.824,3.385-2.286,3.751-3.133,2-1.473,2.788-1.86,4-4.2,3.589-6.895-9.41-16.019,2.421-22.4,8.665-4.676,17.073-3.007,13.306-17.137s2.534-42.426,19.594-35.366c9.79,4.052,3.336,17.937,9.544,26.054,5.9,7.714,3.64,15.443-4.436,22.322s-2.469,9.879,1.738,17.481c5.054,9.131-9.6,13.761-16.55,15.323C953.351,347.555,939.951,354.529,940.484,361.573Z" transform="translate(-925.572 -264.006)" fill="url(#linear-gradient-2)"/>
              <g id="Group_2336" data-name="Group 2336" clip-path="url(#clip-path-2)">
                <path id="Path_6890" data-name="Path 6890" d="M1031.5,309.7l-.092-.122a83.935,83.935,0,0,0,18.161-18.687,86.954,86.954,0,0,0,11.389-22.617,102.865,102.865,0,0,0,3.079-51.268l.15-.028a103.032,103.032,0,0,1-3.084,51.344,87.1,87.1,0,0,1-11.409,22.657A84.081,84.081,0,0,1,1031.5,309.7Z" transform="translate(-1025.805 -219.47)" fill="#fff"/>
                <path id="Path_6891" data-name="Path 6891" d="M1298.731,1593.675l-.071-.136c8.719-4.573,23.4-7.335,32.727-6.157l-.019.152C1322.068,1586.359,1307.428,1589.113,1298.731,1593.675Z" transform="translate(-1278.903 -1517.044)" fill="#fff"/>
                <path id="Path_6892" data-name="Path 6892" d="M1066.909,1305.894l-.122-.092c3.071-4.083,3.965-9.562,2.648-16.284a58.09,58.09,0,0,0-6.255-16.245l.134-.073a58.239,58.239,0,0,1,6.271,16.288C1070.91,1296.254,1070.01,1301.774,1066.909,1305.894Z" transform="translate(-1055.893 -1219.757)" fill="#fff"/>
                <path id="Path_6893" data-name="Path 6893" d="M1602.547,903.3l-.126-.086c5.38-7.97,14.8-11.65,21.759-13.331l.036.148C1617.285,891.7,1607.9,895.366,1602.547,903.3Z" transform="translate(-1566.577 -856.736)" fill="#fff"/>
                <path id="Path_6894" data-name="Path 6894" d="M1431.391,323.737c-.553-4.627-3.086-13.753-13.831-22.881l.1-.116a46.821,46.821,0,0,1,9.091,10.266,30.365,30.365,0,0,1,4.792,12.713Z" transform="translate(-1391.506 -298.795)" fill="#fff"/>
              </g>
            </g>
            <g id="Group_2339" data-name="Group 2339" transform="translate(66.595 15.301)">
              <path id="Path_6896" data-name="Path 6896" d="M1273.518,406.348q-7.988-2.091-15.916-4.554c-.1.07-.572-11.894,5.7-17.448,12.373-10.736,6.112-22.288,4.689-28.88-2.376-9.33.464-18.836,9.6-17.974,10.153.759,13.833-15.778,13.681-31.207-.6-7.583,7.4-15.82,14.623-17.1,7.39-1.494,14,3.962,14.547,19.005,1.414,17.5-12.233,26.459-17.814,34.54-5.488,7.932,4.36,15.927-5,22.46-7.91,5.849-17.483,9.625-15.092,18.332C1285.024,392.141,1283.466,398.794,1273.518,406.348Z" transform="translate(-1257.555 -288.942)" fill="url(#linear-gradient-3)"/>
              <g id="Group_2338" data-name="Group 2338" clip-path="url(#clip-path-3)">
                <path id="Path_6897" data-name="Path 6897" d="M1417.26,332.062l-.181-.022a386.23,386.23,0,0,1,19.493-47.4c1.663-3.766,3.435-7.554,5.149-11.216,4.591-9.808,9.338-19.95,12.2-30.254,3.2-11.52,3.685-22.159,1.491-32.527l.178-.038c2.2,10.4,1.712,21.064-1.493,32.613-2.863,10.321-7.614,20.47-12.208,30.284-1.714,3.661-3.486,7.448-5.15,11.216A387.894,387.894,0,0,0,1417.26,332.062Z" transform="translate(-1408.632 -214.758)" fill="#fff"/>
                <path id="Path_6898" data-name="Path 6898" d="M2041.831,621.056l-.121-.136c6.769-6.034,15.127-14.775,19.617-19.472,3.521-3.683,3.639-3.782,3.757-3.751l-.048.176.024-.088.025.085c-.164.084-1.694,1.681-3.626,3.7C2056.967,606.273,2048.606,615.018,2041.831,621.056Z" transform="translate(-2000.184 -581.344)" fill="#fff"/>
                <path id="Path_6899" data-name="Path 6899" d="M1918.844,478.955a32.536,32.536,0,0,0-5.15-16.5,17.814,17.814,0,0,0-4.921-5.29.068.068,0,0,0,.042-.008l-.084-.159c.05-.026.106-.011.227.058a19.715,19.715,0,0,1,5.211,5.8,32.978,32.978,0,0,1,4.858,16.1Z" transform="translate(-1874.246 -448.085)" fill="#fff"/>
                <path id="Path_6900" data-name="Path 6900" d="M1481.2,1232.515l-.178-.041c.006-.027.026-.1.047-.169s.04-.141.047-.166c1.6-7.04.764-14.888-2.477-23.326a66.962,66.962,0,0,0-6.793-13.017c-.2-.293-.275-.414-.3-.462l.167-.073c.016.035.132.212.281.434a67.132,67.132,0,0,1,6.812,13.052c3.253,8.473,4.089,16.357,2.484,23.432-.006.028-.027.1-.049.176S1481.206,1232.49,1481.2,1232.515Z" transform="translate(-1460.218 -1147.266)" fill="#fff"/>
                <path id="Path_6901" data-name="Path 6901" d="M1714.063,1595.926l-.143-.113c7.666-9.792,21.433-9.013,21.544-8.969l.058.093-.072.082-.019-.088-.018.087C1735.285,1587,1721.675,1586.2,1714.063,1595.926Zm21.348-9.085.019.088Z" transform="translate(-1689.753 -1518.083)" fill="#fff"/>
                <path id="Path_6902" data-name="Path 6902" d="M1345.342,2119.922l-.18-.027c.459-3.1-.069-8.537-5.184-16.8-.273-.441-.273-.441-.26-.494l.088.023.087-.023c.013.032.118.2.239.4C1345.275,2111.309,1345.8,2116.788,1345.342,2119.922Z" transform="translate(-1335.363 -2006.556)" fill="#fff"/>
                <path id="Path_6903" data-name="Path 6903" d="M1481.168,2141.054l-.168-.07c.946-2.289,4.155-6.625,15.019-9.946.151-.046.248-.075.283-.089l.065.17c-.036.014-.137.045-.295.093C1485.28,2134.511,1482.1,2138.794,1481.168,2141.054Z" transform="translate(-1469.167 -2033.405)" fill="#fff"/>
              </g>
            </g>
            <path id="Path_6905" data-name="Path 6905" d="M426.331,220.693v114.39c0,1.711-1.462,2.079-3.119,2.133l-56.8,2.936-.861.028a3.1,3.1,0,0,1-3.213-3.113V218.707a3.1,3.1,0,0,1,3.212-3.113l1.168.038,57.007,4.433C425.384,220.121,426.331,218.982,426.331,220.693Z" transform="translate(-343.151 -204.176)" fill="url(#linear-gradient-7)"/>
            <path id="Path_6906" data-name="Path 6906" d="M459.75,220.692v114.39a3.194,3.194,0,0,1-3.011,3.209l-57.767,1.889a3.1,3.1,0,0,1-3.213-3.113V218.707a3.1,3.1,0,0,1,3.213-3.113l57.767,1.889A3.2,3.2,0,0,1,459.75,220.692Z" transform="translate(-374.801 -204.175)" fill="url(#linear-gradient-8)"/>
            <path id="Path_6907" data-name="Path 6907" d="M493.65,348.876V454.844a2.979,2.979,0,0,1-2.814,2.992l-54.317,1.706a2.892,2.892,0,0,1-2.99-2.9V347.217a2.9,2.9,0,0,1,2.99-2.913l54.317,1.585A2.969,2.969,0,0,1,493.65,348.876Z" transform="translate(-410.571 -326.071)" fill="#fff"/>
            <path id="Path_6908" data-name="Path 6908" d="M992.143,280.567a1.044,1.044,0,0,1-1.072,1.059A1.124,1.124,0,0,1,990,280.5a1.043,1.043,0,0,1,1.074-1.059A1.124,1.124,0,0,1,992.143,280.567Z" transform="translate(-937.571 -264.643)" fill="#de8bdf"/>
            <g id="Group_2340" data-name="Group 2340" transform="translate(23.166 18.146)" opacity="0.3">
              <path id="Path_6909" data-name="Path 6909" d="M472.228,427.787c-.937-12.857,6.09-18.164,3.411-29.814-3.312-14.4-16.055-15.013-20.394-29.134-1.663-5.41-2.32-13.588,2.44-25.5l-17.942-.681a2.312,2.312,0,0,0-2.282,2.449V457.553a2.243,2.243,0,0,0,2.282,2.39l49.12-3.139C476.366,445.932,472.8,435.69,472.228,427.787Z" transform="translate(-437.46 -342.661)" fill="#d8dee8"/>
            </g>
            <path id="Path_6910" data-name="Path 6910" d="M701.007,2014.581l-33.427,1.354a1.6,1.6,0,0,0-1.43,1.661h0a1.448,1.448,0,0,0,1.43,1.542l33.427-1.447a1.539,1.539,0,0,0,1.344-1.611h0A1.39,1.39,0,0,0,701.007,2014.581Z" transform="translate(-630.873 -1907.896)" fill="#d8dee8"/>
            <path id="Path_6911" data-name="Path 6911" d="M701.007,2119.188l-33.427,1.521a1.611,1.611,0,0,0-1.43,1.669h0a1.441,1.441,0,0,0,1.43,1.536l33.427-1.615a1.548,1.548,0,0,0,1.344-1.618h0A1.383,1.383,0,0,0,701.007,2119.188Z" transform="translate(-630.873 -2006.964)" fill="#d8dee8"/>
            <path id="Path_6912" data-name="Path 6912" d="M701.007,2223.793l-33.427,1.688a1.621,1.621,0,0,0-1.43,1.676h0a1.431,1.431,0,0,0,1.43,1.528l33.427-1.782a1.558,1.558,0,0,0,1.344-1.625h0A1.374,1.374,0,0,0,701.007,2223.793Z" transform="translate(-630.873 -2106.029)" fill="#d8dee8"/>
            <path id="Path_6913" data-name="Path 6913" d="M1110.013,501.58l-16.815-.535a.727.727,0,0,0-.708.772h0a.784.784,0,0,0,.708.815l16.815.512a.713.713,0,0,0,.688-.76h0A.77.77,0,0,0,1110.013,501.58Z" transform="translate(-1034.636 -474.511)" fill="#d8dee8"/>
            <path id="Path_6914" data-name="Path 6914" d="M1110.013,554.918l-16.815-.494a.729.729,0,0,0-.708.773h0a.781.781,0,0,0,.708.813l16.815.47a.715.715,0,0,0,.688-.762h0A.769.769,0,0,0,1110.013,554.918Z" transform="translate(-1034.636 -525.065)" fill="#d8dee8"/>
            <path id="Path_6915" data-name="Path 6915" d="M1110.013,608.248,1093.2,607.8a.731.731,0,0,0-.708.775h0a.779.779,0,0,0,.708.812l16.815.428a.718.718,0,0,0,.688-.764h0A.766.766,0,0,0,1110.013,608.248Z" transform="translate(-1034.636 -575.609)" fill="#d8dee8"/>
            <path id="Path_6916" data-name="Path 6916" d="M702.328,882.453a7.254,7.254,0,0,1,5.529-4.276l.167-11.467c-6.823.2-12.7,4.925-15.334,11.7Z" transform="translate(-656.008 -820.813)" fill="url(#linear-gradient-9)"/>
            <path id="Path_6917" data-name="Path 6917" d="M853.932,1262.45c-.582,3.81-3.5,6.734-7.016,6.771a6.391,6.391,0,0,1-2.929-.678l-5.348,9.876a15.452,15.452,0,0,0,8.277,2.219c8.871-.183,16.057-7.983,16.867-17.772Z" transform="translate(-794.229 -1195.596)" fill="url(#linear-gradient-10)"/>
            <path id="Path_6918" data-name="Path 6918" d="M672.543,1148.735l5.363-9.886a8.58,8.58,0,0,1-2.648-6.323,9.27,9.27,0,0,1,.175-1.8l-9.65-4.025a22.094,22.094,0,0,0-.784,5.857A20.33,20.33,0,0,0,672.543,1148.735Z" transform="translate(-629.784 -1067.035)" fill="url(#linear-gradient-11)"/>
            <path id="Path_6919" data-name="Path 6919" d="M1015.19,743.2c3.219.563,5.719,3.566,6.02,7.288l16.3.724v-.024c0-14.2-9.648-26-22.047-27.044Z" transform="translate(-961.43 -685.793)" fill="url(#linear-gradient-12)"/>
            <path id="Path_6920" data-name="Path 6920" d="M498.825,454.553c-.936-12.855,6.09-18.164,3.411-29.808-3.312-14.4-16.052-15.014-20.388-29.132-1.6-5.186-2.267-12.917,1.878-24.045l-17.379-.639a.951.951,0,0,0-.937,1.006v112.3a.923.923,0,0,0,.937.982l47.617-2.981C502.672,471.854,499.377,462.128,498.825,454.553Z" transform="translate(-440.764 -351.286)" fill="#fff" opacity="0.35"/>
            <path id="Path_6921" data-name="Path 6921" d="M954.212,1643.437l23.82-.575a1.189,1.189,0,0,1,1.122,1.278V1656.6a1.281,1.281,0,0,1-1.122,1.347l-25.106.953a1.209,1.209,0,0,1-1.177-1.293V1641.32Z" transform="translate(-901.349 -1554.403)" opacity="0.3" fill="url(#linear-gradient-13)"/>
            <path id="Path_6922" data-name="Path 6922" d="M1031.82,1869.042l19.1-.642v1.506l-19.1.668Z" transform="translate(-977.179 -1769.457)" fill="#fff" opacity="0.67"/>
            <path id="Path_6923" data-name="Path 6923" d="M1031.82,1812.109l19.1-.589v1.506l-19.1.615Z" transform="translate(-977.179 -1715.59)" fill="#fff" opacity="0.67"/>
            <path id="Path_6924" data-name="Path 6924" d="M1031.82,1755.167l19.1-.537v1.506l-19.1.563Z" transform="translate(-977.179 -1661.712)" fill="#fff" opacity="0.67"/>
            <path id="Path_6925" data-name="Path 6925" d="M1258.931,1310.435l-3.071-.128a36.731,36.731,0,0,0-2.308-7.228l2.7-1.444a2.669,2.669,0,0,0,.924-3.813l-2.871-4.7c-.841-1.377-5.56-2.194-6.911-1.467l.121,1.809a39.794,39.794,0,0,0-5.476-5.288l1.6-2.823a2.907,2.907,0,0,0-1.18-3.878l-4.755-2.807c-1.393-.821-5.809-1.148-6.551.167l1.059,3.611a37.749,37.749,0,0,0-7.112-2.073l-.117-3.423a3.057,3.057,0,0,0-2.932-2.892l-5.33-.175a2.592,2.592,0,0,0-2.73,2.7l.116,3.414a33.7,33.7,0,0,0-6.922,1.578l-1.8-2.981c-.821-1.358-5.084-2.234-6.4-1.511l-1.951,2.823a2.66,2.66,0,0,0-.9,3.76l1.754,2.91a31.6,31.6,0,0,0-5,4.837l-2.849-1.708c-1.359-.815-6.025-1.182-6.749.115l.515,5.175a2.894,2.894,0,0,0,1.146,3.823l2.707,1.632a32.5,32.5,0,0,0-1.756,6.937l-2.957-.123a2.528,2.528,0,0,0-2.681,2.648l.177,5.208a3.049,3.049,0,0,0,2.87,2.89l2.793.125a36.427,36.427,0,0,0,2.069,7.3l-2.275,1.226a2.635,2.635,0,0,0-.889,3.735l.619,5.539c.814,1.364,4.687,1.006,5.995.306l2.164-1.159a39.781,39.781,0,0,0,5.522,5.677l-1.165,2.065a2.919,2.919,0,0,0,1.154,3.848l1.874,3.155c1.369.839,5.858.174,6.589-1.117l1.127-1.991a37.847,37.847,0,0,0,7.565,2.4l.08,2.35a3.126,3.126,0,0,0,2.922,2.943l5.334.286a2.539,2.539,0,0,0,2.744-2.648l-.08-2.356a33.756,33.756,0,0,0,7.5-1.625l-1.307,2.791c.834,1.384,5.19,1.274,6.528.571l4.578-2.4a2.646,2.646,0,0,0,.918-3.788l-1.34-2.217a31.6,31.6,0,0,0,5.291-5.212l.442,1.8c1.4.847,5.025.067,5.772-1.242l2.559-4.469a2.932,2.932,0,0,0-1.188-3.9l-2.449-1.468a32.636,32.636,0,0,0,1.639-7.255l2.9.129a2.6,2.6,0,0,0,2.795-2.7l-.181-5.318A3.132,3.132,0,0,0,1258.931,1310.435Zm-37.271,31.449c-15.118-.737-27.717-13.394-28.225-28.278s11.268-26.482,26.378-25.91c15.2.576,28.014,13.243,28.526,28.29S1236.87,1342.625,1221.66,1341.884Z" transform="translate(-1117.767 -1206.419)" fill="url(#linear-gradient-14)"/>
            <path id="Path_6926" data-name="Path 6926" d="M1191.443,1293.968l-3.072-.13a37.371,37.371,0,0,0-2.308-7.3l2.7-1.459a2.714,2.714,0,0,0,.925-3.854l-2.872-4.752a3.028,3.028,0,0,0-3.968-1.19l-2.822,1.536a40.012,40.012,0,0,0-5.476-5.343l1.6-2.853a2.952,2.952,0,0,0-1.179-3.919l-4.756-2.834a2.756,2.756,0,0,0-3.866.9l-1.627,2.912a37.42,37.42,0,0,0-7.112-2.094l-.116-3.459a3.072,3.072,0,0,0-2.932-2.923l-5.33-.177a2.6,2.6,0,0,0-2.73,2.727l.116,3.449a33.408,33.408,0,0,0-6.922,1.6l-1.8-3.013a2.927,2.927,0,0,0-3.87-1.161l-4.478,2.489a2.7,2.7,0,0,0-.9,3.8l1.755,2.94a31.755,31.755,0,0,0-5,4.888l-2.85-1.725a2.664,2.664,0,0,0-3.77.882l-2.464,4.463a2.938,2.938,0,0,0,1.146,3.863l2.707,1.649a33.068,33.068,0,0,0-1.755,7.011l-2.957-.125a2.542,2.542,0,0,0-2.681,2.678l.177,5.262a3.065,3.065,0,0,0,2.87,2.92l2.794.126a37.09,37.09,0,0,0,2.069,7.371l-2.277,1.239a2.678,2.678,0,0,0-.889,3.774l2.772,4.691a2.931,2.931,0,0,0,3.841,1.214l2.164-1.171a39.989,39.989,0,0,0,5.522,5.736l-1.165,2.086a2.966,2.966,0,0,0,1.154,3.889l4.66,2.885a2.675,2.675,0,0,0,3.8-.826l1.127-2.013a37.649,37.649,0,0,0,7.565,2.427l.08,2.374a3.143,3.143,0,0,0,2.923,2.973l5.334.289a2.551,2.551,0,0,0,2.744-2.675l-.08-2.383a33.471,33.471,0,0,0,7.5-1.646l1.284,2.152a3.032,3.032,0,0,0,3.938,1.245l4.577-2.427a2.689,2.689,0,0,0,.919-3.828l-1.34-2.24a31.75,31.75,0,0,0,5.291-5.266l2.318,1.412a2.764,2.764,0,0,0,3.9-.847l2.559-4.515a2.98,2.98,0,0,0-1.187-3.945l-2.45-1.483a33.256,33.256,0,0,0,1.639-7.331l2.9.131a2.615,2.615,0,0,0,2.795-2.725l-.181-5.374A3.147,3.147,0,0,0,1191.443,1293.968Zm-37.238,32.939c-15.759-.776-28.893-14.109-29.421-29.784a26.05,26.05,0,0,1,27.5-27.295c15.849.607,29.2,13.949,29.736,29.8s-11.958,28.062-27.813,27.282Z" transform="translate(-1053.851 -1190.462)" fill="url(#linear-gradient-15)"/>
            <g id="Group_2341" data-name="Group 2341" transform="translate(47.149 54.227)" clip-path="url(#clip-path-4)">
              <path id="Path_6927" data-name="Path 6927" d="M1447.915,1066.767a6.716,6.716,0,0,0-.251-3.6c-1.1-3-4.216-4.448-4.46-4.2-.131.135.416.925.682,1.266.553.71.838.688.963,1.064.256.776-.828,1.24-1.006,2.476a2.924,2.924,0,0,0,1.019,2.578A3.3,3.3,0,0,0,1447.915,1066.767Z" transform="translate(-1413.908 -1057.092)" fill="url(#linear-gradient-16)"/>
              <path id="Path_6928" data-name="Path 6928" d="M1494.16,1187.043l2.8-1.963s8.956,13.257,28.49,13.359l-3.154,14.245S1502.347,1214.108,1494.16,1187.043Z" transform="translate(-1462.184 -1176.551)" fill="url(#linear-gradient-17)"/>
              <path id="Path_6929" data-name="Path 6929" d="M1042.455,1603.484l-9.881-23.147a2.034,2.034,0,0,1,1.391-2.776l18.1-4.4a2.035,2.035,0,0,1,2.364,1.208l9.089,22.247a2.035,2.035,0,0,1-1.288,2.715l-17.307,5.3A2.034,2.034,0,0,1,1042.455,1603.484Z" transform="translate(-1024.887 -1544.031)" fill="#26264f"/>
              <path id="Path_6930" data-name="Path 6930" d="M1062.733,1618.238l-9.23-21.621a1.9,1.9,0,0,1,1.3-2.595l16.907-4.106a1.9,1.9,0,0,1,2.208,1.128l8.489,20.781a1.9,1.9,0,0,1-1.2,2.536l-16.167,4.947A1.9,1.9,0,0,1,1062.733,1618.238Z" transform="translate(-1044.717 -1559.897)" fill="url(#linear-gradient-18)"/>
              <path id="Path_6931" data-name="Path 6931" d="M1074.155,1639.883c-2.185-5.28-9.65-5.28-12.381-9.832-2.367-3.641,2.912-6.919,3.823-11.106a.052.052,0,0,1,0-.024l-10.8,2.623a1.9,1.9,0,0,0-1.3,2.595l9.23,21.621a1.9,1.9,0,0,0,2.3,1.071l9.248-2.83C1074.208,1642.691,1074.536,1641.154,1074.155,1639.883Z" transform="translate(-1044.717 -1587.416)" opacity="0.4" fill="url(#linear-gradient-19)"/>
              <path id="Path_6932" data-name="Path 6932" d="M1083.7,1826.442l-.3-2.728-1.572-3a2.852,2.852,0,0,1-.326-1.324v-2.975l1.9,4.388a14.278,14.278,0,0,1,1.719-1.364c.474-.237.415.712.059,1.068s.178,3.261-.178,3.558l.119,1.779Z" transform="translate(-1071.386 -1774.457)" fill="url(#linear-gradient-20)"/>
              <path id="Path_6933" data-name="Path 6933" d="M1395.155,1448.008c1.476-3.609,4.642-5.683,6.284-6.758,3.886-2.546,6.374-2.081,15.3-3.439,11.893-1.81,13.317-3.524,17.317-2.135,5.25,1.825,7.993,6.592,9.25,8.776,6.336,11.011-1.072,16.608.83,38.541.777,8.957,2.768,16.742-2.016,21.346-1.006.969-2.135,1.476-4.388,2.489-8.938,4.022-16.951,3.328-21.821,2.846-5.358-.53-8.066-.835-9.487-2.728-2.27-3.024.067-6.867.477-13.519.292-4.775-.794-8.56-2.965-16.128C1398.882,1459.7,1392.33,1454.921,1395.155,1448.008Z" transform="translate(-1367.777 -1413.396)" fill="url(#linear-gradient-21)"/>
              <path id="Path_6934" data-name="Path 6934" d="M1709.43,1242.016a5.726,5.726,0,0,1,.614-4.1c.874-1.612,1.1-1.832,1.514-2.111l.579-.357.069-.026a6.7,6.7,0,0,1,1.9-.116c.82.175,1.695,3.516,1.444,8.239q.053.27.1.544.194,1.12.311,2.192c.076.684,1.046.668,1.732.624,2.787-.178,4.151.059,4.269.477.222.778-3.083,3.32-7.165,3.892-5.478.041-9.934-.542-9.455-1.4.212-.383,4.457-1.492,5.651-2.591a3.642,3.642,0,0,0,1.094-2.79C1711.75,1244.315,1709.829,1243.437,1709.43,1242.016Z" transform="translate(-1662.145 -1224.094)" fill="url(#linear-gradient-22)"/>
              <path id="Path_6935" data-name="Path 6935" d="M1802.29,1120.209a5.5,5.5,0,0,0,1.045,3.278,2.42,2.42,0,0,1,.53.578.737.737,0,0,1,.083.173c.321.922-1.145,2.007-.862,2.42.205.3,1.2-.1,1.32.159.111.243-.717.747-.59,1.039.1.22.606.019.927.356.159.168.113.3.282.815a4.657,4.657,0,0,0,.335.784c.506.859,1.938,1.173,2.214.829.077-.1.011-.176.089-.5a2.556,2.556,0,0,1,.28-.643,6.61,6.61,0,0,1,1.733-1.364,4.737,4.737,0,0,0,1.808-2.06c.039-.1.063-.173.081-.227a5.441,5.441,0,0,0-.136-3.638c-.812-1.632-2.645-.857-4.144-2.474-1.731-1.866-.7-4.416-1.639-4.7C1804.61,1114.728,1802.28,1117.5,1802.29,1120.209Z" transform="translate(-1753.996 -1110.196)" fill="url(#linear-gradient-23)"/>
              <path id="Path_6936" data-name="Path 6936" d="M1817.575,1324.681c.358-.493.989-.03.992.608s-.614,1.3-1.213,1.174S1817.092,1325.344,1817.575,1324.681Z" transform="translate(-1767.959 -1308.563)" fill="url(#linear-gradient-24)"/>
              <path id="Path_6937" data-name="Path 6937" d="M1767.947,1308.23l-.834,1.083s-.9,1.324-1.421.6c-.428-.593-.538-.582-.565-.555,0,0-.006.012-.007.011s.063-.3.126-.554a4.87,4.87,0,0,0-.712,1.528,2.707,2.707,0,0,0,.008,2.089,2.072,2.072,0,0,0,1.223.957,5.47,5.47,0,0,0,1.607-.159s-1.421-1.031-1.442-1.276c-.059-.665.865-1.026,1.551-2.391A5.512,5.512,0,0,0,1767.947,1308.23Z" transform="translate(-1718.041 -1293.179)" fill="url(#linear-gradient-25)"/>
              <path id="Path_6938" data-name="Path 6938" d="M1493.329,1840.364c-1.577-3.138,2.286-7.311-.237-12.1-2.143-4.064-6.037-3.153-7.827-6.878-2.162-4.5,2.542-7.861,2.372-14.7-.2-8.182-7.242-16.372-11.385-15.654-2.681.464-3.025,4.463-4.911,8.844a99.383,99.383,0,0,1,5.385,14.4c2.171,7.568,3.258,11.352,2.966,16.128-.408,6.652-2.744,10.5-.477,13.519,1.421,1.893,4.131,2.2,9.487,2.727,4.872.482,12.883,1.176,21.821-2.846,1.131-.509,1.978-.89,2.669-1.266C1499.23,1844.632,1494.579,1842.854,1493.329,1840.364Z" transform="translate(-1440.573 -1750.372)" opacity="0.3" fill="url(#linear-gradient-26)"/>
              <path id="Path_6939" data-name="Path 6939" d="M1111.944,1575.509l2.609-1.126c1.469,1.5,3.344,2.965,4.921,2.489,2.351-.707,1.763-5.031,4.625-12.63,3.242-8.608,6.922-10.821,8.775-11.622a3.99,3.99,0,0,1,2.609-.534c3.953.967,5.26,11.267,4.151,18.974-.625,4.343-1.85,12.858-8.835,16.9-.992.574-6.454,3.734-11.859,1.245C1114.323,1587.079,1111.47,1581.623,1111.944,1575.509Z" transform="translate(-1100.16 -1524.057)" fill="url(#linear-gradient-27)"/>
            </g>
            <path id="Path_6941" data-name="Path 6941" d="M469.464,1693.318a7.7,7.7,0,0,1-7.968,7.855,9.019,9.019,0,0,1-8.566-8.97,7.681,7.681,0,0,1,8.566-7.815A9.078,9.078,0,0,1,469.464,1693.318Z" transform="translate(-428.945 -1595.148)" fill="url(#linear-gradient-28)"/>
            <path id="Path_6942" data-name="Path 6942" d="M492.3,1686.036a7.7,7.7,0,0,1-7.969,7.855,9.019,9.019,0,0,1-8.566-8.969,7.681,7.681,0,0,1,8.566-7.815A9.079,9.079,0,0,1,492.3,1686.036Z" transform="translate(-450.575 -1588.252)" fill="url(#linear-gradient-29)"/>
            <path id="Path_6943" data-name="Path 6943" d="M499.159,1692.912a7.351,7.351,0,0,1-7.618,7.5,8.608,8.608,0,0,1-8.161-8.56,7.33,7.33,0,0,1,8.161-7.459A8.662,8.662,0,0,1,499.159,1692.912Z" transform="translate(-457.782 -1595.151)" fill="url(#linear-gradient-30)"/>
            <path id="Path_6944" data-name="Path 6944" d="M504.05,1697.823a7.1,7.1,0,0,1-7.366,7.24,8.314,8.314,0,0,1-7.873-8.267,7.08,7.08,0,0,1,7.873-7.206A8.365,8.365,0,0,1,504.05,1697.823Z" transform="translate(-462.924 -1600.079)" fill="url(#linear-gradient-31)"/>
            <path id="Path_6945" data-name="Path 6945" d="M569.137,1716.813h0a.451.451,0,0,1,.4.442v.761a11.309,11.309,0,0,1,1.32.229q.487.114.968.273a.444.444,0,0,1,.3.457l-.094.953a.357.357,0,0,1-.51.3,5.513,5.513,0,0,0-.649-.241,5.843,5.843,0,0,0-1.225-.229l-.112-.009v2.18a5.732,5.732,0,0,1,2.531,1.295,2.731,2.731,0,0,1,.811,2.02,2.663,2.663,0,0,1-.9,2.1,4.1,4.1,0,0,1-2.537.893v.841a.382.382,0,0,1-.4.388h-.007a.424.424,0,0,1-.4-.424v-.829l-.174,0a11.573,11.573,0,0,1-1.47-.159,9.4,9.4,0,0,1-1.019-.233.437.437,0,0,1-.318-.452l.11-1.227a.388.388,0,0,1,.543-.32,8.13,8.13,0,0,0,.893.293,7.9,7.9,0,0,0,1.43.238l.007-2.425a5.248,5.248,0,0,1-2.464-1.21,2.776,2.776,0,0,1-.817-2.057,2.4,2.4,0,0,1,.885-2,3.927,3.927,0,0,1,2.495-.7v-.778a.359.359,0,0,1,.4-.367Zm-.4,2.912a1.342,1.342,0,0,0-.794.28.817.817,0,0,0-.286.655.879.879,0,0,0,.265.651,1.878,1.878,0,0,0,.816.416Zm.705,4.392v2.224a1.235,1.235,0,0,0,.85-.265.95.95,0,0,0,.3-.749,1.023,1.023,0,0,0-.275-.732,2.022,2.022,0,0,0-.872-.481Z" transform="translate(-535.421 -1625.896)" fill="url(#linear-gradient-32)"/>
            <path id="Path_6946" data-name="Path 6946" d="M495.351,1699.554c.249-2.458,2.508-3.5,2.213-5.759a5.7,5.7,0,0,0-2.416-3.485,7.083,7.083,0,0,0-6.338,7.2,8.315,8.315,0,0,0,7.873,8.267,7.386,7.386,0,0,0,1.218-.059A8.035,8.035,0,0,1,495.351,1699.554Z" transform="translate(-462.924 -1600.798)" opacity="0.3" fill="url(#linear-gradient-33)"/>
            <path id="Path_6947" data-name="Path 6947" d="M71.442,1169.639a12.388,12.388,0,0,1-12.815,12.633,14.5,14.5,0,0,1-13.776-14.426,12.352,12.352,0,0,1,13.776-12.569A14.6,14.6,0,0,1,71.442,1169.639Z" transform="translate(-42.475 -1094.03)" fill="url(#linear-gradient-28)"/>
            <path id="Path_6948" data-name="Path 6948" d="M108.152,1157.921a12.388,12.388,0,0,1-12.815,12.634,14.505,14.505,0,0,1-13.776-14.426,12.354,12.354,0,0,1,13.776-12.569A14.6,14.6,0,0,1,108.152,1157.921Z" transform="translate(-77.241 -1082.933)" fill="url(#linear-gradient-35)"/>
            <path id="Path_6949" data-name="Path 6949" d="M119.189,1168.967a11.822,11.822,0,0,1-12.252,12.057,13.845,13.845,0,0,1-13.127-13.769,11.79,11.79,0,0,1,13.127-12A13.933,13.933,0,0,1,119.189,1168.967Z" transform="translate(-88.842 -1094.017)" fill="url(#linear-gradient-30)"/>
            <path id="Path_6950" data-name="Path 6950" d="M127.061,1176.879a11.418,11.418,0,0,1-11.847,11.645,13.374,13.374,0,0,1-12.664-13.3,11.388,11.388,0,0,1,12.664-11.589A13.454,13.454,0,0,1,127.061,1176.879Z" transform="translate(-97.119 -1101.957)" fill="url(#linear-gradient-31)"/>
            <path id="Path_6951" data-name="Path 6951" d="M231.736,1207.42h0a.725.725,0,0,1,.64.711v1.223a17.949,17.949,0,0,1,2.122.371q.784.183,1.557.438a.716.716,0,0,1,.488.735l-.15,1.536a.576.576,0,0,1-.822.477,8.86,8.86,0,0,0-1.044-.389,9.439,9.439,0,0,0-1.969-.371l-.181-.015v3.507a9.2,9.2,0,0,1,4.071,2.082,4.414,4.414,0,0,1,1.305,3.252,4.281,4.281,0,0,1-1.442,3.378,6.594,6.594,0,0,1-4.08,1.437v1.351a.614.614,0,0,1-.64.624h-.011a.68.68,0,0,1-.642-.678v-1.334l-.284-.012a18.711,18.711,0,0,1-2.364-.252,15.237,15.237,0,0,1-1.633-.376.7.7,0,0,1-.513-.728l.177-1.974a.624.624,0,0,1,.873-.515,12.777,12.777,0,0,0,1.437.472,12.627,12.627,0,0,0,2.3.384l.011-3.9a8.468,8.468,0,0,1-3.964-1.945,4.446,4.446,0,0,1-1.313-3.309,3.868,3.868,0,0,1,1.423-3.215,6.3,6.3,0,0,1,4.012-1.12v-1.252a.578.578,0,0,1,.64-.591Zm-.641,4.681a2.165,2.165,0,0,0-1.278.451,1.312,1.312,0,0,0-.459,1.053,1.416,1.416,0,0,0,.424,1.046,3,3,0,0,0,1.313.669Zm1.134,7.064v3.578a1.993,1.993,0,0,0,1.368-.424,1.529,1.529,0,0,0,.477-1.2,1.647,1.647,0,0,0-.442-1.178A3.268,3.268,0,0,0,232.229,1219.165Z" transform="translate(-213.71 -1143.477)" fill="url(#linear-gradient-38)"/>
            <path id="Path_6952" data-name="Path 6952" d="M113.07,1179.659c.4-3.954,4.034-5.628,3.56-9.264-.292-2.241-1.991-4.131-3.886-5.605a11.391,11.391,0,0,0-10.193,11.588,13.374,13.374,0,0,0,12.664,13.3,11.969,11.969,0,0,0,1.957-.1C114.436,1186.858,112.726,1183.056,113.07,1179.659Z" transform="translate(-97.119 -1103.108)" opacity="0.3" fill="url(#linear-gradient-39)"/>
            <path id="Path_6953" data-name="Path 6953" d="M87.423,478.264l-38.208-.38a1.563,1.563,0,0,1-1.565-1.536V461.813a1.5,1.5,0,0,1,1.565-1.483l33.262.794a1.522,1.522,0,0,1,1.483,1.513v12.486Z" transform="translate(-45.127 -435.953)" fill="url(#linear-gradient-40)"/>
            <path id="Path_6954" data-name="Path 6954" d="M179.423,534.465l-25.3-.494V532.23l25.3.528Z" transform="translate(-145.958 -504.045)" fill="#fff" opacity="0.67"/>
            <path id="Path_6955" data-name="Path 6955" d="M179.423,600.186l-25.3-.424V598.02l25.3.458Z" transform="translate(-145.958 -566.352)" fill="#fff" opacity="0.67"/>
            <path id="Path_6956" data-name="Path 6956" d="M179.423,665.915l-25.3-.353V663.82l25.3.389Z" transform="translate(-145.958 -628.667)" fill="#fff" opacity="0.67"/>
            <path id="Path_6957" data-name="Path 6957" d="M221.024,2136.32l-30.754.306a1.259,1.259,0,0,0-1.26,1.237v11.7a1.208,1.208,0,0,0,1.26,1.195l26.773-.635a1.225,1.225,0,0,0,1.192-1.218v-10.058Z" transform="translate(-179.001 -2023.189)" fill="url(#linear-gradient-41)"/>
            <path id="Path_6958" data-name="Path 6958" d="M295.076,2317.05l-20.366.4v1.4l20.366-.426Z" transform="translate(-260.162 -2194.349)" fill="#fff" opacity="0.67"/>
            <path id="Path_6959" data-name="Path 6959" d="M295.076,2265.15l-20.366.341v1.4l20.366-.37Z" transform="translate(-260.162 -2145.197)" fill="#fff" opacity="0.67"/>
            <path id="Path_6960" data-name="Path 6960" d="M295.076,2213.25l-20.366.285v1.4l20.366-.312Z" transform="translate(-260.162 -2096.046)" fill="#fff" opacity="0.67"/>
            <path id="Path_6961" data-name="Path 6961" d="M1846.064,579.7a1.9,1.9,0,0,0-1.806-1.871l-25.872-1.125a1.9,1.9,0,0,0-2.056,1.824V599.18a1.972,1.972,0,0,0,2.052,1.9l.606-.007.029-.045,25.222-.5c1-.008,1.824-.48,1.824-1.47Zm-22.63,1.678a1.779,1.779,0,0,1-1.748-1.721,1.624,1.624,0,0,1,1.748-1.589,1.776,1.776,0,0,1,1.734,1.72A1.623,1.623,0,0,1,1823.434,581.377Zm8.246.28a1.731,1.731,0,0,1-1.686-1.689,1.581,1.581,0,0,1,1.686-1.562,1.729,1.729,0,0,1,1.674,1.688,1.583,1.583,0,0,1-1.674,1.565Zm7.96.271a1.685,1.685,0,0,1-1.628-1.659,1.538,1.538,0,0,1,1.628-1.536,1.683,1.683,0,0,1,1.614,1.66,1.538,1.538,0,0,1-1.614,1.537Z" transform="translate(-1720.145 -546.161)" fill="url(#linear-gradient-42)"/>
            <path id="Path_6962" data-name="Path 6962" d="M1858.669,583.75v-3.584a1.853,1.853,0,0,0-1.78-1.847l-25.781-1.122a2.037,2.037,0,0,0-1.257.344,1.764,1.764,0,0,0-.78,1.458v4.751Zm-6.392-4.525a1.683,1.683,0,0,1,1.612,1.656,1.538,1.538,0,0,1-1.612,1.536,1.684,1.684,0,0,1-1.625-1.656,1.539,1.539,0,0,1,1.626-1.536Zm-7.94-.326a1.729,1.729,0,0,1,1.67,1.687,1.578,1.578,0,0,1-1.67,1.56,1.729,1.729,0,0,1-1.682-1.686,1.58,1.58,0,0,1,1.683-1.561Zm-8.224-.338a1.775,1.775,0,0,1,1.731,1.718,1.623,1.623,0,0,1-1.731,1.589,1.777,1.777,0,0,1-1.743-1.718A1.624,1.624,0,0,1,1836.113,578.561Z" transform="translate(-1732.21 -546.629)" fill="url(#linear-gradient-43)"/>
            <path id="Path_6963" data-name="Path 6963" d="M1829.09,680.62v16.969a1.925,1.925,0,0,0,2,1.9l25.808-.209a1.808,1.808,0,0,0,1.794-1.8V681.558Z" transform="translate(-1732.229 -644.577)" fill="#fff"/>
            <path id="Path_6964" data-name="Path 6964" d="M2128.663,735.68a.423.423,0,0,0-.413-.436l-2.553-.066c-.244-.006-.547.179-.547.416v2.391c0,.237.315.435.56.439l2.482.048a.453.453,0,0,0,.472-.417Z" transform="translate(-2012.61 -696.245)" fill="#bfc8d6"/>
            <path id="Path_6965" data-name="Path 6965" d="M2217.675,737.969a.444.444,0,0,0-.435-.433l-2.388-.063a.407.407,0,0,0-.424.415v2.367a.424.424,0,0,0,.419.432l2.4.045a.415.415,0,0,0,.427-.414Z" transform="translate(-2097.161 -698.42)" fill="#bfc8d6"/>
            <path id="Path_6966" data-name="Path 6966" d="M2301.993,740.187a.446.446,0,0,0-.437-.428l-2.367-.064a.424.424,0,0,0-.439.408v2.344a.439.439,0,0,0,.43.43l2.373.047a.426.426,0,0,0,.44-.408Z" transform="translate(-2177.017 -700.523)" fill="#bfc8d6"/>
            <path id="Path_6967" data-name="Path 6967" d="M2128.663,818.175a.42.42,0,0,0-.413-.432l-2.553-.043c-.244,0-.547.183-.547.42v2.391c0,.237.315.433.56.435l2.482.024a.46.46,0,0,0,.472-.424Z" transform="translate(-2012.61 -774.397)" fill="#bfc8d6"/>
            <path id="Path_6968" data-name="Path 6968" d="M2217.675,819.625a.44.44,0,0,0-.435-.429l-2.388-.039a.411.411,0,0,0-.424.418v2.368a.421.421,0,0,0,.418.428l2.4.023a.42.42,0,0,0,.427-.418Z" transform="translate(-2097.161 -775.777)" fill="url(#linear-gradient-44)"/>
            <path id="Path_6969" data-name="Path 6969" d="M2301.993,821.08a.442.442,0,0,0-.437-.424l-2.367-.041a.424.424,0,0,0-.439.412v2.344a.434.434,0,0,0,.43.426l2.373.024a.43.43,0,0,0,.44-.412Z" transform="translate(-2177.017 -777.158)" fill="#bfc8d6"/>
            <path id="Path_6970" data-name="Path 6970" d="M1865.782,813.675a.478.478,0,0,0-.481-.448l-2.581-.046a.43.43,0,0,0-.451.433v2.466a.438.438,0,0,0,.441.447l2.605.028a.448.448,0,0,0,.467-.433Z" transform="translate(-1763.65 -770.118)" fill="#bfc8d6"/>
            <path id="Path_6971" data-name="Path 6971" d="M1955.154,815.214a.435.435,0,0,0-.433-.441l-2.584-.044a.473.473,0,0,0-.5.429V817.6a.5.5,0,0,0,.507.443l2.551.025a.441.441,0,0,0,.457-.43Z" transform="translate(-1848.289 -771.584)" fill="#bfc8d6"/>
            <path id="Path_6972" data-name="Path 6972" d="M2041.884,816.723a.438.438,0,0,0-.432-.44l-2.564-.044a.494.494,0,0,0-.518.424v2.416a.519.519,0,0,0,.524.439l2.521.028a.454.454,0,0,0,.469-.424Z" transform="translate(-1930.426 -773.014)" fill="#bfc8d6"/>
            <path id="Path_6973" data-name="Path 6973" d="M2128.663,900.678a.416.416,0,0,0-.413-.428l-2.553-.02c-.244,0-.547.187-.547.424v2.392c0,.237.315.431.56.431h2.482a.463.463,0,0,0,.472-.424Z" transform="translate(-2012.61 -852.558)" fill="#bfc8d6"/>
            <path id="Path_6974" data-name="Path 6974" d="M2217.675,901.379a.435.435,0,0,0-.435-.424l-2.387-.017a.417.417,0,0,0-.424.424v2.368a.416.416,0,0,0,.418.424h2.4a.424.424,0,0,0,.427-.424Z" transform="translate(-2097.161 -853.229)" fill="#bfc8d6"/>
            <path id="Path_6975" data-name="Path 6975" d="M1865.782,898.73a.473.473,0,0,0-.482-.444l-2.581-.021a.435.435,0,0,0-.451.437v2.466a.433.433,0,0,0,.441.443h2.605a.454.454,0,0,0,.467-.437Z" transform="translate(-1763.65 -850.697)" fill="#bfc8d6"/>
            <path id="Path_6976" data-name="Path 6976" d="M1955.154,899.4a.43.43,0,0,0-.433-.437l-2.584-.02a.48.48,0,0,0-.5.434v2.44a.494.494,0,0,0,.507.439h2.551a.447.447,0,0,0,.457-.434Z" transform="translate(-1848.289 -851.336)" fill="#bfc8d6"/>
            <path id="Path_6977" data-name="Path 6977" d="M2041.884,900.066a.432.432,0,0,0-.432-.435l-2.564-.021a.5.5,0,0,0-.518.428v2.416a.514.514,0,0,0,.524.435l2.521,0a.457.457,0,0,0,.469-.427Z" transform="translate(-1930.426 -851.97)" fill="#bfc8d6"/>
            <path id="Path_6978" data-name="Path 6978" d="M1903.863,519.125a3.086,3.086,0,0,0-3.083,3.153l1.365.059c.111-1.147.854-1.994,1.718-1.953a2.22,2.22,0,0,1,1.72,2.376c0,1.246-.786,2.266-1.72,2.233a1.651,1.651,0,0,1-1.253-.785,1.583,1.583,0,0,0-.2,1.566,2.819,2.819,0,0,0,1.455.477,3.184,3.184,0,0,0,3.054-3.43A3.534,3.534,0,0,0,1903.863,519.125Z" transform="translate(-1800.122 -491.631)" fill="#823672"/>
            <path id="Path_6979" data-name="Path 6979" d="M2060.946,526.939a3.009,3.009,0,0,0-2.976,3.1l1.318.057c.105-1.126.824-1.959,1.658-1.92.9.044,1.66,1.109,1.66,2.334s-.759,2.227-1.66,2.193a1.6,1.6,0,0,1-1.21-.77,1.579,1.579,0,0,0-.195,1.539,2.692,2.692,0,0,0,1.4.466,3.111,3.111,0,0,0,2.949-3.373A3.445,3.445,0,0,0,2060.946,526.939Z" transform="translate(-1948.988 -499.031)" fill="#823672"/>
            <path id="Path_6980" data-name="Path 6980" d="M2213.1,534.582c-1.506-.076-2.754,1.2-2.872,3.048l1.271.053c.1-1.106.795-1.926,1.6-1.888.87.042,1.6,1.088,1.6,2.291s-.733,2.189-1.6,2.156a1.523,1.523,0,0,1-1.165-.756,1.573,1.573,0,0,0-.188,1.512,2.565,2.565,0,0,0,1.355.457c1.574.053,2.846-1.43,2.846-3.315A3.367,3.367,0,0,0,2213.1,534.582Z" transform="translate(-2093.185 -506.27)" fill="#823672"/>
            <path id="Path_6981" data-name="Path 6981" d="M1858.649,604.909v.651a1.8,1.8,0,0,1-1.78,1.805l-25.808.208a1.941,1.941,0,0,1-2.012-1.895V585.038a1.775,1.775,0,0,1,.773-1.468c1.026.371,2.348,1.4,3.025,4.192,1.193,4.921,2.221,7.022,6.824,6.917,2.942-.067,5.2.069,6.6,1.365a5.348,5.348,0,0,1,1.512,3.247,2.551,2.551,0,0,0,1.692,1.872,18.336,18.336,0,0,0,3.258.953C1854.955,602.636,1857.434,603.225,1858.649,604.909Z" transform="translate(-1732.191 -552.667)" fill="#bfc8d6" opacity="0.3"/>
            <path id="Path_6982" data-name="Path 6982" d="M2223.639,833.122a.112.112,0,0,1-.07-.018l-.576-.378a.119.119,0,0,1-.027-.166.123.123,0,0,1,.167-.039l.489.322,1.394-1.648a.117.117,0,0,1,.166-.019.121.121,0,0,1,.007.169l-1.463,1.733A.13.13,0,0,1,2223.639,833.122Z" transform="translate(-2105.226 -787.136)" fill="#fff"/>
          </g>
        </g>
      </g>
    </g>
  </g>
</svg>
