<svg xmlns="http://www.w3.org/2000/svg" xmlns:xlink="http://www.w3.org/1999/xlink" width="490.386" height="489.271" viewBox="0 0 490.386 489.271">
  <defs>
    <clipPath id="clip-path">
      <rect id="Rectangle_2007" data-name="Rectangle 2007" width="281.051" height="300.284" fill="none"/>
    </clipPath>
    <linearGradient id="linear-gradient" x1="0.504" y1="0.328" x2="-0.057" y2="0.679" gradientUnits="objectBoundingBox">
      <stop offset="0" stop-color="#e38ddd"/>
      <stop offset="1" stop-color="#9571f6"/>
    </linearGradient>
    <clipPath id="clip-path-2">
      <path id="Path_7528" data-name="Path 7528" d="M323.042,682.713c.077,24.331,1.159,49.084,1.37,73.585-12.8,5.382-27.983,11.4-36.2-3.809-11.423-21.143-53.282-17-71.851-11.4-22.983,6.932-74.053,17.3-74.137-18-.068-29.388,11.533-47.529-23.67-54.545s-54.62-26.159-49.906-58.686c4.961-34.231-36.984-64.634-14.725-92.764,38.792-49.016,104.092,24.333,116.2,72.255s34.4,29.379,67.563,28.7c45.275-.921,22.716,48.562,43.86,61.9C298.128,690.419,306.617,684.728,323.042,682.713Z" transform="translate(-47.368 -500.896)" fill="none"/>
    </clipPath>
    <clipPath id="clip-path-3">
      <path id="Path_7537" data-name="Path 7537" d="M713.811,580.006q28.023-7.339,55.829-15.966c.339.245,2.008-41.721-19.988-61.2-43.4-37.658-21.437-78.178-16.448-101.3,8.452-32.765-1.877-70.313-35.724-59.333-33.066,9.89-45.852-59.018-45.932-113.182,2.1-26.6-25.97-55.49-51.293-60.007-25.921-5.242-49.1,13.9-51.024,66.665-4.957,61.4,42.916,92.811,62.489,121.159,19.251,27.826-15.295,55.868,17.53,78.783,27.747,20.516,61.325,33.76,52.946,64.3C673.458,530.163,678.922,553.5,713.811,580.006Z" transform="translate(-548.873 -168.176)" fill="none"/>
    </clipPath>
    <linearGradient id="linear-gradient-2" x1="0.693" y1="-0.003" x2="0.072" y2="0.944" gradientUnits="objectBoundingBox">
      <stop offset="0" stop-color="#ff9085"/>
      <stop offset="1" stop-color="#fb6fbb"/>
    </linearGradient>
    <linearGradient id="linear-gradient-3" x1="0.63" y1="0.061" x2="0.211" y2="1.471" gradientUnits="objectBoundingBox">
      <stop offset="0" stop-color="#fff"/>
      <stop offset="1" stop-color="#ebeff2"/>
    </linearGradient>
    <linearGradient id="linear-gradient-4" x1="0.63" y1="0.061" x2="0.211" y2="1.471" xlink:href="#linear-gradient-3"/>
    <linearGradient id="linear-gradient-5" x1="-0.323" y1="-5.195" x2="0.956" y2="3.969" gradientUnits="objectBoundingBox">
      <stop offset="0" stop-color="#311944"/>
      <stop offset="1" stop-color="#893976"/>
    </linearGradient>
    <linearGradient id="linear-gradient-6" x1="0.465" y1="2.445" x2="0.528" y2="-1.732" gradientUnits="objectBoundingBox">
      <stop offset="0" stop-color="#ffc444"/>
      <stop offset="1" stop-color="#f36f56"/>
    </linearGradient>
    <linearGradient id="linear-gradient-7" x1="-0.52" y1="-6.601" x2="0.759" y2="2.562" xlink:href="#linear-gradient-5"/>
    <linearGradient id="linear-gradient-8" x1="0.474" y1="1.793" x2="0.536" y2="-2.385" xlink:href="#linear-gradient-6"/>
    <linearGradient id="linear-gradient-9" y1="0.5" x2="1" y2="0.5" gradientUnits="objectBoundingBox">
      <stop offset="0" stop-color="#444b8c"/>
      <stop offset="1" stop-color="#26264f"/>
    </linearGradient>
    <linearGradient id="linear-gradient-10" x1="-0.447" y1="0.5" x2="1" y2="0.5" xlink:href="#linear-gradient-9"/>
    <linearGradient id="linear-gradient-11" x1="0" y1="0.5" x2="1" y2="0.5" xlink:href="#linear-gradient-9"/>
    <linearGradient id="linear-gradient-12" x1="63.373" y1="-24.727" x2="65.556" y2="-22.904" xlink:href="#linear-gradient-6"/>
    <linearGradient id="linear-gradient-13" x1="8.785" y1="-7.051" x2="9.741" y2="-7.051" xlink:href="#linear-gradient-2"/>
    <linearGradient id="linear-gradient-14" x1="0.495" y1="0.171" x2="0.629" y2="1.712" xlink:href="#linear-gradient-2"/>
    <linearGradient id="linear-gradient-15" x1="1.693" y1="1.578" x2="0.156" y2="0.143" xlink:href="#linear-gradient-2"/>
    <linearGradient id="linear-gradient-16" x1="-16.582" y1="-0.281" x2="-16.582" y2="-1.68" xlink:href="#linear-gradient-6"/>
    <linearGradient id="linear-gradient-17" x1="1.022" y1="1.739" x2="0.319" y2="0.126" gradientUnits="objectBoundingBox">
      <stop offset="0" stop-color="#444b8c"/>
      <stop offset="1" stop-color="#3e4177"/>
    </linearGradient>
    <linearGradient id="linear-gradient-18" x1="-43.517" y1="-0.941" x2="-42.393" y2="-3.32" xlink:href="#linear-gradient-6"/>
    <linearGradient id="linear-gradient-19" x1="-7.421" y1="3.547" x2="-9.871" y2="5.028" gradientUnits="objectBoundingBox">
      <stop offset="0" stop-color="#aa80f9"/>
      <stop offset="1" stop-color="#6165d7"/>
    </linearGradient>
    <linearGradient id="linear-gradient-20" x1="-2.117" y1="-0.968" x2="-1.074" y2="-0.968" xlink:href="#linear-gradient"/>
    <linearGradient id="linear-gradient-21" x1="-6.758" y1="3.754" x2="-9.034" y2="5.45" xlink:href="#linear-gradient-19"/>
    <linearGradient id="linear-gradient-22" x1="-2.064" y1="0.062" x2="-1.087" y2="0.062" xlink:href="#linear-gradient-9"/>
    <linearGradient id="linear-gradient-23" x1="-2.113" y1="0.082" x2="-0.982" y2="0.082" xlink:href="#linear-gradient-9"/>
    <linearGradient id="linear-gradient-24" x1="-3.389" y1="-0.705" x2="-3.344" y2="1.046" xlink:href="#linear-gradient-9"/>
    <linearGradient id="linear-gradient-25" x1="-3.444" y1="-1.532" x2="-3.404" y2="0.959" xlink:href="#linear-gradient-9"/>
    <linearGradient id="linear-gradient-26" x1="-0.522" y1="-0.425" x2="-0.468" y2="0.842" xlink:href="#linear-gradient"/>
    <linearGradient id="linear-gradient-27" x1="0.681" y1="1.102" x2="1.606" y2="1.102" xlink:href="#linear-gradient"/>
    <linearGradient id="linear-gradient-28" x1="14.052" y1="0.749" x2="15.293" y2="0.749" xlink:href="#linear-gradient-9"/>
    <linearGradient id="linear-gradient-29" x1="-22.325" y1="-7.427" x2="-19.911" y2="-7.427" xlink:href="#linear-gradient-6"/>
    <linearGradient id="linear-gradient-30" x1="0.514" y1="0.772" x2="0.708" y2="2.632" xlink:href="#linear-gradient-2"/>
    <linearGradient id="linear-gradient-31" x1="-0.526" y1="-0.018" x2="1.792" y2="1.129" xlink:href="#linear-gradient-17"/>
    <linearGradient id="linear-gradient-32" x1="-1.535" y1="-0.119" x2="2.33" y2="1.124" xlink:href="#linear-gradient-17"/>
    <linearGradient id="linear-gradient-33" x1="0.936" y1="-0.09" x2="-1.257" y2="2.877" xlink:href="#linear-gradient-19"/>
    <linearGradient id="linear-gradient-34" x1="-0.527" y1="-0.018" x2="1.792" y2="1.13" xlink:href="#linear-gradient-17"/>
    <linearGradient id="linear-gradient-35" x1="-1.535" y1="-0.119" x2="2.33" y2="1.124" xlink:href="#linear-gradient-17"/>
    <linearGradient id="linear-gradient-36" x1="0.936" y1="-0.09" x2="-1.257" y2="2.877" xlink:href="#linear-gradient-19"/>
    <linearGradient id="linear-gradient-37" x1="0.652" y1="0.669" x2="0.052" y2="0.001" xlink:href="#linear-gradient-9"/>
    <linearGradient id="linear-gradient-38" x1="0.64" y1="-48.418" x2="0.039" y2="-49.09" xlink:href="#linear-gradient-9"/>
    <linearGradient id="linear-gradient-39" x1="9.818" y1="0.669" x2="9.193" y2="0.007" xlink:href="#linear-gradient-9"/>
    <linearGradient id="linear-gradient-40" x1="9.781" y1="-48.89" x2="9.164" y2="-49.522" xlink:href="#linear-gradient-9"/>
    <linearGradient id="linear-gradient-41" x1="-0.164" y1="-0.988" x2="0.574" y2="0.666" xlink:href="#linear-gradient-6"/>
    <linearGradient id="linear-gradient-42" x1="0.306" y1="0.097" x2="1.026" y2="1.586" xlink:href="#linear-gradient-6"/>
    <linearGradient id="linear-gradient-43" x1="0.162" y1="-0.012" x2="1.216" y2="1.958" xlink:href="#linear-gradient-6"/>
  </defs>
  <g id="Vision_Mission_1" data-name="Vision &amp; Mission 1" transform="translate(0 -0.002)">
    <g id="Layer_2" data-name="Layer 2" transform="translate(0 0.002)">
      <g id="Illustration">
        <path id="Path_7521" data-name="Path 7521" d="M448.958,393.88C390.043,515.466,114.517,509.771,49.574,438.6,23.653,410.194,16.81,361.412,6.75,289.756,1.907,255.263,1.223,227.46.8,208.384c-1.417-64.891-2.123-97.34,8.323-119.415C39.048,25.779,142.991,1.186,210.177.045Q217.2-.075,224.366.14C303.033,2.483,391.8,35.231,446.554,105.209a234.6,234.6,0,0,1,15.824,22.861C512.354,210.246,487.647,314.035,448.958,393.88Z" transform="translate(0 -0.002)" fill="#dcecfd"/>
        <g id="Group_2445" data-name="Group 2445" transform="translate(1.676 22.16)" clip-path="url(#clip-path)">
          <path id="Path_7522" data-name="Path 7522" d="M296.189,755.88c3.193-1.526,8.795-7.661,9.6-9.862,5.331-14.65,17.093-41.431,11.04-56.759-1.033-2.621-13.778-1.18-16.251-3.081-8.347-1.049-11.309-.9-18.751-5.8-21.975-14.472,1.417-62.87-44.081-62.246-33.332.453-55.44,19.242-67.589-28.739S92.733,468.13,53.937,517.118c-22.265,28.116,19.695,58.538,14.725,92.766C63.945,642.41,83.355,661.54,118.57,668.57s23.59,25.14,23.674,54.548c.108,35.325,51.069,24.862,74.184,18.023C235.043,735.635,286.156,734.17,296.189,755.88Z" transform="translate(-40.774 -435.551)" fill="url(#linear-gradient)"/>
          <g id="Group_2442" data-name="Group 2442" transform="translate(6.601 65.366)" clip-path="url(#clip-path-2)">
            <g id="Group_2441" data-name="Group 2441" transform="translate(14.539 -9.22)" opacity="0.7">
              <path id="Path_7523" data-name="Path 7523" d="M380.007,707.9l.061-.442C265.156,691.7,172.044,609.478,130.995,487.51l-.425.143c19.438,57.753,51.85,108.482,93.735,146.7a294.7,294.7,0,0,0,71.068,48.177A284.515,284.515,0,0,0,380.007,707.9Z" transform="translate(-130.57 -480.629)" fill="#fcfdfe"/>
              <path id="Path_7524" data-name="Path 7524" d="M579.126,1685.436c25.563-18.8,73.391-34.792,106.628-35.638l-.012-.448c-15.491.4-35.741,4.368-55.557,10.9-20.546,6.776-38.778,15.6-51.325,24.822Z" transform="translate(-500.526 -1439.45)" fill="#fcfdfe"/>
              <path id="Path_7525" data-name="Path 7525" d="M1225.224,1245.278l.175-.409c-15.828-7.012-27.5-21.748-34.691-43.8-5.267-16.153-8.054-35.783-8.281-58.349h-.447c.229,22.609,3.021,42.287,8.3,58.482C1197.523,1223.385,1209.278,1238.213,1225.224,1245.278Z" transform="translate(-998.257 -1021.348)" fill="#fcfdfe"/>
              <path id="Path_7526" data-name="Path 7526" d="M227.452,1247.565l.2-.4c-29.035-14.694-62.95-10.039-86.285-3.549l.121.43C164.748,1237.581,198.541,1232.938,227.452,1247.565Z" transform="translate(-139.483 -1099.519)" fill="#fcfdfe"/>
              <path id="Path_7527" data-name="Path 7527" d="M328.074,538.93l.414-.175c-13.962-34.01-4-71.28,3.182-90.47l-.419-.156a158.565,158.565,0,0,0-9.96,45.324C320.291,510.229,322.571,525.527,328.074,538.93Z" transform="translate(-287.775 -448.13)" fill="#fcfdfe"/>
            </g>
          </g>
          <g id="Group_2444" data-name="Group 2444" transform="translate(94.234 7.227)" clip-path="url(#clip-path-3)">
            <path id="Path_7529" data-name="Path 7529" d="M713.811,580.006q28.023-7.339,55.829-15.966c.339.245,2.008-41.721-19.988-61.2-43.4-37.658-21.437-78.178-16.448-101.3,8.335-32.729-1.627-66.073-33.667-63.046-35.614,2.661-48.525-55.345-47.989-109.469,2.1-26.6-25.97-55.49-51.293-60.007-25.921-5.242-49.1,13.9-51.024,66.665-4.957,61.4,42.916,92.811,62.489,121.159,19.251,27.826-15.3,55.868,17.53,78.783,27.747,20.516,61.325,33.76,52.946,64.3C673.458,530.163,678.922,553.5,713.811,580.006Z" transform="translate(-548.873 -168.176)" fill="url(#linear-gradient-2)"/>
            <g id="Group_2443" data-name="Group 2443" transform="translate(-6.7 -14.543)" opacity="0.7">
              <path id="Path_7530" data-name="Path 7530" d="M983.042,510.947l.524-.063c-.035-.367-27.747-85.154-68.37-166.23-5.833-13.212-12.057-26.5-18.065-39.343-33.5-71.6-65.159-139.229-48.011-220.252l-.524-.11c-7.716,36.459-6,73.871,5.242,114.372,10.044,36.194,26.707,71.792,42.82,106.217,6.011,12.843,12.232,26.124,18.065,39.344C955.674,426.623,982.952,510.472,983.042,510.947Z" transform="translate(-785.619 -84.95)" fill="#fcfdfe"/>
              <path id="Path_7531" data-name="Path 7531" d="M591.911,578.376l.35-.4c-23.765-21.189-52.992-51.8-68.7-68.246-11.8-12.359-12.639-13.153-13.027-13.053l.07.257-.065.253c.556.266,5.621,5.569,12.634,12.913C538.88,526.55,568.124,557.173,591.911,578.376Z" transform="translate(-510.53 -424.726)" fill="#fcfdfe"/>
              <path id="Path_7532" data-name="Path 7532" d="M915.595,423.391c1.41-27.548,10.61-46.563,18.08-57.664,8.255-12.263,16.413-18.051,17.215-18.187a.212.212,0,0,1-.108-.024l.246-.474c-.14-.073-.309-.059-.806.225-2.224,1.274-10.357,7.7-18.272,20.118-9.976,15.646-15.817,35.011-16.89,55.98Z" transform="translate(-844.373 -301.213)" fill="#fcfdfe"/>
              <path id="Path_7533" data-name="Path 7533" d="M1376.775,1261.708l.524-.12c-12.337-53.07,18.631-107.248,32.517-128.084.687-1.031.968-1.456,1.048-1.618l-.489-.215c-.056.126-.451.718-1,1.536a235.378,235.378,0,0,0-24.044,46.009C1373.868,1209.074,1370.991,1236.827,1376.775,1261.708Z" transform="translate(-1223.015 -948.767)" fill="#fcfdfe"/>
              <path id="Path_7534" data-name="Path 7534" d="M969.888,1579.856l.421-.33c-26.8-34.23-74.982-31.476-75.374-31.322l-.175.271.211.241.056-.257.056.255a102.482,102.482,0,0,1,27.822,2.84C936.774,1554.8,956.181,1562.347,969.888,1579.856Z" transform="translate(-827.62 -1292.423)" fill="#fcfdfe"/>
              <path id="Path_7535" data-name="Path 7535" d="M1611.074,2156.949l.524-.078c-1.609-10.893.241-29.968,18.192-58.969.947-1.529.947-1.532.905-1.691l-.524.133.259-.066-.259-.061c-.04.108-.4.681-.842,1.4C1611.3,2126.753,1609.456,2145.974,1611.074,2156.949Z" transform="translate(-1418.384 -1744.764)" fill="#fcfdfe"/>
              <path id="Path_7536" data-name="Path 7536" d="M1320.7,2161.934l.495-.206c-7.724-18.683-36.3-29.856-52.647-34.854-.512-.157-.874-.269-1-.315l-.192.5c.135.053.474.156,1.033.327C1284.651,2132.353,1313.063,2143.449,1320.7,2161.934Z" transform="translate(-1135.112 -1769.81)" fill="#fcfdfe"/>
            </g>
          </g>
        </g>
        <path id="Path_7538" data-name="Path 7538" d="M534.314,758.924c0,75.954-57.98,141.514-133.49,146.706-80.307,5.52-149.254-58.586-149.254-143.512s68.947-150.59,149.254-146.884C476.334,618.718,534.314,682.968,534.314,758.924Z" transform="translate(-207.611 -507.605)" fill="#b7c0ce"/>
        <path id="Path_7539" data-name="Path 7539" d="M577.914,758.924c0,75.954-57.98,141.514-133.49,146.706-80.307,5.52-149.254-58.586-149.254-143.512s68.947-150.59,149.254-146.884C519.934,618.718,577.914,682.968,577.914,758.924Z" transform="translate(-243.592 -507.605)" fill="#d8dee8"/>
        <g id="Group_2446" data-name="Group 2446" transform="translate(51.578 153.361)" opacity="0.3">
          <path id="Path_7540" data-name="Path 7540" d="M470.995,1073.623c-27.272-31-1.5-70.769-30.074-109.375-26.515-35.822-63.836-23.148-92.584-60.919a94.6,94.6,0,0,1-13.783-25.669A148.561,148.561,0,0,0,295.17,978.811c0,84.923,68.947,149.032,149.254,143.512a139.748,139.748,0,0,0,74.055-27.509C495.086,1092.67,480.375,1084.284,470.995,1073.623Z" transform="translate(-295.17 -877.66)" fill="#d8dee8"/>
        </g>
        <path id="Path_7541" data-name="Path 7541" d="M639.419,827.834c0,68.724-52.618,127.749-120.78,132.042C446.591,964.416,385.1,906.693,385.1,830.707s61.491-135.1,133.539-132.192C586.8,701.274,639.419,759.111,639.419,827.834Z" transform="translate(-317.808 -576.372)" fill="url(#linear-gradient-3)"/>
        <path id="Path_7542" data-name="Path 7542" d="M518.672,1180.466a125.112,125.112,0,0,0,54.886-16.613c-12.756-3.89-21.82-10.184-28.308-17.567-27.272-31-1.5-70.769-30.074-109.375-26.515-35.821-63.836-23.148-92.584-60.919a90.89,90.89,0,0,1-6.771-10.283A133.821,133.821,0,0,0,385.14,1051.3C385.133,1127.281,446.624,1185.006,518.672,1180.466Z" transform="translate(-317.841 -796.963)" fill="#eff2f6" opacity="0.3"/>
        <path id="Path_7543" data-name="Path 7543" d="M759.428,965.592c0,54.024-41.612,99.963-94.948,102.71-55.684,2.869-102.659-42.065-102.659-100.475s46.975-104.412,102.659-102.8C717.815,866.56,759.428,911.566,759.428,965.592Z" transform="translate(-463.648 -713.838)" fill="#d8dee8"/>
        <path id="Path_7544" data-name="Path 7544" d="M661.017,1150.213c-22.62-30.565-53.072-25.837-79.4-47.213a104.1,104.1,0,0,0-19.746,61.253c0,58.414,46.975,103.348,102.659,100.475a96.923,96.923,0,0,0,26.571-5.139h0C663.82,1228.592,689.591,1188.825,661.017,1150.213Z" transform="translate(-463.689 -910.263)" fill="#d8dee8" opacity="0.3"/>
        <path id="Path_7545" data-name="Path 7545" d="M875.541,1103.183c0,39.009-30.23,71.841-68.556,73.375-39.524,1.582-72.485-30.536-72.485-71.781s32.961-74.107,72.485-73.417C845.313,1032.027,875.541,1064.176,875.541,1103.183Z" transform="translate(-606.154 -851.132)" fill="url(#linear-gradient-4)"/>
        <path id="Path_7546" data-name="Path 7546" d="M750.528,1186.69a74.363,74.363,0,0,0-16.029,46.283c0,41.239,32.961,73.363,72.485,71.781a69.135,69.135,0,0,0,14.2-2.053c-5.068-25.877,3.446-54.844-17.7-83.422C788.17,1198.592,769.3,1194.071,750.528,1186.69Z" transform="translate(-606.153 -979.329)" fill="#eff2f6" opacity="0.3"/>
        <path id="Path_7547" data-name="Path 7547" d="M987.816,1240.7c0,23.661-18.447,43.369-41.588,44.034-23.567.673-43-18.608-43-43.073s19.431-44.186,43-44.047C969.369,1197.749,987.816,1217.041,987.816,1240.7Z" transform="translate(-745.4 -988.346)" fill="#d8dee8"/>
        <path id="Path_7548" data-name="Path 7548" d="M958.265,1330.219c-.566-17.649-1.962-36-15.5-54.3a69.916,69.916,0,0,0-23.892-20.607,44.5,44.5,0,0,0-15.6,33.969c0,24.464,19.431,43.746,43,43.073a41.4,41.4,0,0,0,12-2.134Z" transform="translate(-745.432 -1035.958)" fill="#d8dee8" opacity="0.3"/>
        <path id="Path_7549" data-name="Path 7549" d="M2072.394,2646.13a35.428,35.428,0,0,1,.862,4.612c.026,1.227-13.469,2.936-13.68,2.032s2.05-2.547,3.682-3.2,6.415-2.408,6.415-2.408Z" transform="translate(-1699.674 -2183.747)" fill="url(#linear-gradient-5)"/>
        <path id="Path_7550" data-name="Path 7550" d="M2112.64,2625.859l.774,4.23a3.075,3.075,0,0,0,2.971,0l.322-4.7Z" transform="translate(-1743.479 -2166.631)" fill="url(#linear-gradient-6)"/>
        <path id="Path_7551" data-name="Path 7551" d="M2213.293,2666.87a35.35,35.35,0,0,1,.861,4.612c.026,1.227-13.469,2.936-13.678,2.032s2.048-2.549,3.68-3.2,6.415-2.41,6.415-2.41Z" transform="translate(-1815.955 -2200.863)" fill="url(#linear-gradient-7)"/>
        <path id="Path_7552" data-name="Path 7552" d="M2253.51,2646.6l.772,4.23a3.091,3.091,0,0,0,2.979,0l.322-4.7Z" transform="translate(-1859.733 -2183.748)" fill="url(#linear-gradient-8)"/>
        <path id="Path_7553" data-name="Path 7553" d="M2057.073,1974.6q-1.966,4.952-3.934,9.9c.192,18.217,1.145,37.964,3.235,59,1.555,15.649,3.582,30.431,5.9,44.271l6.345-.8a63.809,63.809,0,0,0,4.893-27.281c-.6-11.914-4.335-13.2-5.019-24.6-.886-14.772,4.984-19.2,6.858-37.209a95.328,95.328,0,0,0-1.015-26.487Z" transform="translate(-1694.375 -1626.911)" fill="url(#linear-gradient-9)"/>
        <path id="Path_7554" data-name="Path 7554" d="M2107.479,1971.39l-9.323,1.733c-4.853,10.268-5.609,20.619-4.258,25.049,1.913,6.291,5.782,8.038,6.093,14.468.308,6.368-3.3,8.314-5.078,15.99-1.223,5.314-.412,10.046,1.27,19.29,3.386,18.622,8.388,24,5.076,30.459a13.912,13.912,0,0,1-6.4,5.969c.185,1.143.369,2.291.559,3.421l6.345-.8a63.812,63.812,0,0,0,4.893-27.281c-.6-11.914-4.336-13.2-5.019-24.6-.886-14.773,4.984-19.2,6.858-37.209A95.539,95.539,0,0,0,2107.479,1971.39Z" transform="translate(-1727.52 -1626.911)" opacity="0.3" fill="url(#linear-gradient-10)"/>
        <path id="Path_7555" data-name="Path 7555" d="M2126.48,1990.446c4.224,15.793,8.194,32.739,11.678,50.767,4.206,21.771,7.164,42.373,9.225,61.559l7.005-.363c7.727-18.9,7.3-31.259,5.334-39.171a117.125,117.125,0,0,1-3.669-18.026,128.638,128.638,0,0,1-.667-16.95c.087-12.756,1.206-15.62.622-25.32-.549-9.1-.874-13.7-3.688-16.179C2144.919,1980.245,2127.779,1989.712,2126.48,1990.446Z" transform="translate(-1754.9 -1637.718)" fill="url(#linear-gradient-11)"/>
        <path id="Path_7556" data-name="Path 7556" d="M1684.718,1448.148s-3.165-4.061-3.059-5.171a8.642,8.642,0,0,1,.8-3.442c.482-.6-1.026-.552-1.627,1.223s-2.078-.323-2.319-.643c-.556-.734-2.854-3.362-2.942-3.145s-1.141.493-.28,3.074c.755,2.259,2.971,3.718,3.89,4.8l.909,1.08,2.335,2.937Z" transform="translate(-1382.272 -1185.865)" fill="url(#linear-gradient-12)"/>
        <path id="Path_7557" data-name="Path 7557" d="M1716.154,1487l-4.224,2.992c.232,4.419,4.992,17.968,11.5,26.188,11.473,14.491,33.9,18.618,47.461,10.685,6.715-3.93,13.6-12.185,11.643-16.812-.542-1.284-1.922-2.682-6.689-3.806-12.7-3-20.334,2.825-29.143,2.832C1740.364,1509.087,1727.513,1501.736,1716.154,1487Z" transform="translate(-1412.788 -1227.163)" fill="url(#linear-gradient-13)"/>
        <path id="Path_7558" data-name="Path 7558" d="M2037.968,1601.99c1.637,10.31-4.1,17.254-5.689,29.73a25.611,25.611,0,0,0-.577,4.833c-.2,7.03,2.01,17.649,3.442,24.531,1.379,6.614,2.1,8.276.944,10.4-1.613,2.96-5.592,4.009-12.445,4.126-.963.019-1.985.019-3.072,0-4.529-.068-10.081-.411-16.775-.827-7.711-.477-11.068-1.078-12.955-3.71-2.531-3.53-.012-7.327.063-14.393.085-8.015-3.084-9.086-7.165-22.031-2.717-8.606-5.323-16.869-3.8-26.91.725-4.809,1.96-12.966,8.282-17.366,3.257-2.271,7.942-2.446,17.186-2.7,11.423-.316,17.137-.479,21.554,1.413.477.2,7.8,3.462,12.407,9.642.2.266.4.54.591.818C2039.972,1600.371,2037.572,1599.478,2037.968,1601.99Z" transform="translate(-1633.593 -1310.09)" fill="url(#linear-gradient-14)"/>
        <path id="Path_7559" data-name="Path 7559" d="M2087.249,1654.852c1.637,10.309-4.1,17.253-5.69,29.73-.192,1.52-.323,3.128-.372,4.833-.2,7.03,2.01,17.648,3.444,24.531,1.377,6.614,2.1,8.276.942,10.4-1.625,2.992-5.658,4.019-12.649,4.125-.963.019-1.985.019-3.072,0-4.486-.075-9.976-.416-16.571-.826-7.718-.477-11.075-1.078-12.962-3.71a6.624,6.624,0,0,1-1.066-4.765,8.975,8.975,0,0,0,4.369,2.86c6.7,1.768,10.783-6.99,20.817-7.11,5.787-.061,8.157,2.817,10.4,1.019,3.883-3.116-.192-14.184-.763-15.727-2.649-7.2-5.789-9.224-6.85-12.185-3.337-9.282,5.926-28.582,21.411-36.425l.131-.068a1.87,1.87,0,0,1,.459.886C2089.253,1653.232,2086.852,1652.339,2087.249,1654.852Z" transform="translate(-1682.873 -1362.951)" opacity="0.3" fill="url(#linear-gradient-15)"/>
        <path id="Path_7560" data-name="Path 7560" d="M2072.433,1522.63a25.867,25.867,0,0,0,2.1,7.294c1.419,2.775,7.82,4.077,9.139,4.615s-2.175,2.7-5.805,3.365-14.145.668-16.14-.57,1.41-1.4,3.946-2.572,3.636-6.4,2.99-8.677S2072.433,1522.63,2072.433,1522.63Z" transform="translate(-1700.963 -1256.567)" fill="url(#linear-gradient-16)"/>
        <path id="Path_7561" data-name="Path 7561" d="M2078.329,1468.242c-2.048-1.714-2.329-1.912-2.588-2.539-1.038-2.522.685-6.226,3.248-7.309.133-.058,1.854-.764,2.59-.052.624.6-.147,1.572.349,2.8.47,1.145,1.494,1.15,3.495,2.539,1.655,1.143,2.682,1.854,3,2.944.641,2.249-1.859,5.782-4.316,5.889C2083.237,1472.544,2082.961,1472.112,2078.329,1468.242Z" transform="translate(-1712.774 -1203.252)" fill="url(#linear-gradient-17)"/>
        <path id="Path_7562" data-name="Path 7562" d="M2090.445,1512.791a5.412,5.412,0,0,1-4.97,1.938c-2.806-.456-2.611-6.831-.676-8a3.587,3.587,0,0,1,2.822-.091c.563.218.736.477,1.663.816.855.311,1.112.238,1.356.486.3.311.481,1.019-.251,2.817a1.544,1.544,0,0,1,1.7-.381.966.966,0,0,1,.341.4C2092.752,1511.543,2092,1512.4,2090.445,1512.791Z" transform="translate(-1719.311 -1243.168)" fill="url(#linear-gradient-18)"/>
        <path id="Path_7563" data-name="Path 7563" d="M2372.9,979.189c.207-.143-38.537,3.982-38.537,3.982l15.795-24.9c5.309-8.37,40.838-9.411,49.461-8.725l.413,3.06Z" transform="translate(-1926.455 -783.482)" fill="url(#linear-gradient-19)"/>
        <path id="Path_7564" data-name="Path 7564" d="M1192.729,1347.409l-84.431,10.722c-.7.087-.911-1.482-.224-1.667l82.86-22.384Z" transform="translate(-914.103 -1100.964)" fill="url(#linear-gradient-20)"/>
        <path id="Path_7565" data-name="Path 7565" d="M2395.53,1249.51c.232.059-38.74,10.44-38.74,10.44l21.512,17.525c7.231,5.891,41.19-6.8,49.186-10.772l-.412-3.06Z" transform="translate(-1944.966 -1031.172)" fill="url(#linear-gradient-21)"/>
        <path id="Path_7566" data-name="Path 7566" d="M2371.047,1254.36c.232.058-38.567,10.4-38.567,10.4l21.423,17.5c7.2,5.878,15.962,7.1,23.712,3.255l29.81-14.8Z" transform="translate(-1924.904 -1035.174)" fill="url(#linear-gradient-22)"/>
        <path id="Path_7567" data-name="Path 7567" d="M2349.416,967.511c.2-.145-39.3,4.989-39.3,4.989l15.727-24.834c5.282-8.347,13.268-12.882,21.624-12.218l32.152,2.558Z" transform="translate(-1906.451 -771.936)" fill="url(#linear-gradient-23)"/>
        <path id="Path_7568" data-name="Path 7568" d="M1595.909,1257.83l-22.807,4.239c-8.014,1.489-15.727-6.672-17.277-18.215h0c-1.555-11.545,3.609-22.251,11.6-23.929l22.737-4.775Z" transform="translate(-1283.733 -1002.816)" fill="url(#linear-gradient-24)"/>
        <g id="Group_2447" data-name="Group 2447" transform="translate(271.812 230.025)" opacity="0.3">
          <path id="Path_7569" data-name="Path 7569" d="M1577.193,1329.9c-8.181-2.135-15.118-7.369-20.829-13.511a29.48,29.48,0,0,0-.557,11.009h0c1.557,11.543,9.261,19.7,17.276,18.215l22.809-4.239-1.69-12.537A26.493,26.493,0,0,1,1577.193,1329.9Z" transform="translate(-1555.529 -1316.39)" fill="url(#linear-gradient-25)"/>
        </g>
        <path id="Path_7570" data-name="Path 7570" d="M1880.226,1138.856l-141.939,37.835c-8.912,1.555-14.662-41.127-5.751-42.68l144.721-17.18Z" transform="translate(-1426.111 -921.676)" fill="url(#linear-gradient-26)"/>
        <g id="Group_2448" data-name="Group 2448" transform="translate(304.497 208.618)" opacity="0.3">
          <path id="Path_7571" data-name="Path 7571" d="M1847.609,1206.606c-28.446,3.558-33.766-4.859-58.656,2.417-22.938,6.7-33.519,18.262-46.372,20.369,1.851,6.591,4.573,11.426,7.678,10.885l141.939-37.835-1.155-8.562A145.211,145.211,0,0,1,1847.609,1206.606Z" transform="translate(-1742.58 -1193.88)" fill="url(#linear-gradient-27)"/>
        </g>
        <path id="Path_7572" data-name="Path 7572" d="M2578.3,1127.311c.826,6.137.253,11.358-1.279,11.645s-3.439-4.431-4.263-10.551-.257-11.334,1.272-11.643S2577.468,1121.172,2578.3,1127.311Z" transform="translate(-2122.879 -921.608)" fill="url(#linear-gradient-28)"/>
        <path id="Path_7573" data-name="Path 7573" d="M2267.251,1298.037l-2.971-3.549a7.576,7.576,0,0,0,3.166-3.495c.938-2.23.7-5.031-.033-5.228-.585-.159-1.481,1.354-1.621,1.588-1.121,1.889-.776,3.507-1.748,4.176a6.164,6.164,0,0,0-1.594,1.239,12.631,12.631,0,0,0-.709,1.117c-.776,1.254,3.669,7.164,3.844,7.405Z" transform="translate(-1866.451 -1061.082)" fill="url(#linear-gradient-29)"/>
        <path id="Path_7574" data-name="Path 7574" d="M2175.458,1386.724c-2.777,5.391-4.905,11.994-2.242,24.972,19.4-5.326,41.878-16.287,39.192-46.021-1.382-15.309-16.691-23.481-19.8-25.255l-2.665,4.949c3.407,4.466,7.131,10.967,5.971,17.949C2194.309,1373,2181.083,1375.819,2175.458,1386.724Z" transform="translate(-1792.462 -1106.196)" fill="url(#linear-gradient-30)"/>
        <path id="Path_7575" data-name="Path 7575" d="M272.691,2025.952c3.984,2.024,8.99.166,11.183-4.148s.736-9.454-3.248-11.475c-.208-.1-.418-.194-.629-.278a50.357,50.357,0,0,0,1.679-7.2,6.553,6.553,0,0,0,.69-.024,9.17,9.17,0,0,0,8.059-9.331,7.764,7.764,0,0,0-8.4-7.864c-.238.021-.472.058-.7.1a46.326,46.326,0,0,0-1.947-6.876c.208-.122.418-.25.62-.392a9.165,9.165,0,0,0,2.777-12.011,7.765,7.765,0,0,0-11.307-2.146c-.2.14-.386.29-.571.444a40.971,40.971,0,0,0-5.057-4.711c.129-.211.253-.424.367-.646,2.191-4.316,5.053-9.028,1.038-10.989-9.289-4.543-13.28-.652-15.468,3.669-.112.224-.21.451-.3.678a41.3,41.3,0,0,0-6.778-1.295c.014-.24.024-.479.021-.724-.1-4.747,1.312-7.316-3.25-7.405-9.951-.194-13.308,4.125-13.214,8.873a7.214,7.214,0,0,0,.051.732,46.163,46.163,0,0,0-6.7,2.486c-.1-.211-.211-.423-.334-.627a7.765,7.765,0,0,0-11.309-2.144,9.156,9.156,0,0,0-2.777,12c.121.2.253.388.388.573a50.525,50.525,0,0,0-4.826,5.592c-.194-.121-.39-.238-.6-.349-3.984-2.024-8.99-.175-11.183,4.148s-.737,9.452,3.248,11.475c.206.105.416.194.627.278a50.6,50.6,0,0,0-1.669,7.22,6.621,6.621,0,0,0-.69.024,9.17,9.17,0,0,0-8.059,9.331,7.764,7.764,0,0,0,8.4,7.863c.238-.021.472-.058.7-.1a46.6,46.6,0,0,0,1.947,6.876c-.208.122-.416.248-.62.391a9.166,9.166,0,0,0-2.777,12.012c2.355,3.909,10.154,5.726,14.042,3,.2-.14-2.348-1.148-2.163-1.3A41.065,41.065,0,0,0,209,2036.4c-.128.211-.253.423-.367.646-2.191,4.314-.737,9.453,3.248,11.475s8.99.166,11.183-4.148c.114-.224.21-.451.3-.678a41.247,41.247,0,0,0,6.778,1.294c-.014.24-.024.479-.021.724a7.765,7.765,0,0,0,8.4,7.863,9.168,9.168,0,0,0,8.059-9.331,7.214,7.214,0,0,0-.051-.732,46.389,46.389,0,0,0,6.7-2.487c.1.211.211.423.334.627a7.767,7.767,0,0,0,11.309,2.144,9.168,9.168,0,0,0,2.777-12.013c-.121-.2-.253-.386-.386-.572a50.549,50.549,0,0,0,4.825-5.6C272.289,2025.73,272.485,2025.847,272.691,2025.952Zm-49.673.631c-14.468-7.339-19.746-26-11.795-41.665s26.131-22.41,40.6-15.064,19.746,26,11.795,41.665S237.484,2033.929,223.018,2026.583Z" transform="translate(-152.194 -1603.749)" fill="url(#linear-gradient-31)"/>
        <path id="Path_7576" data-name="Path 7576" d="M482.682,2044.977a9.17,9.17,0,0,0,8.059-9.331,7.763,7.763,0,0,0-8.4-7.863c-.238.021-.472.058-.7.1a46.3,46.3,0,0,0-1.947-6.876c.208-.122.418-.25.62-.391,3.89-2.724,8.7-9.308,5.957-12.957-5.207-6.921-10.6-3.925-14.488-1.2-.2.14-.386.29-.571.444a41.064,41.064,0,0,0-5.045-4.718c.129-.209.253-.423.367-.645a9.044,9.044,0,0,0,.51-7.138q-5.635,9.918-11.1,19.92c11.543,8.458,15.216,25.124,8,39.334-6.116,12.042-18.265,18.8-30.132,17.955-.524,1.373-1.048,2.754-1.616,4.113-1.538,3.689-3.285,7.3-5.034,10.911q1.65.313,3.32.486c-.014.241-.024.481-.021.725.1,4.748,2.971,8.781,11.218,8.344,4.557-.241,5.34-5.067,5.242-9.812a7.222,7.222,0,0,0-.051-.732,46.422,46.422,0,0,0,6.7-2.487c.1.211.211.423.335.627,2.355,3.909,10.526,5.571,14.416,2.845s2.023-8.8-.332-12.714c-.121-.2-.253-.386-.386-.571a50.658,50.658,0,0,0,4.825-5.6c.194.122.39.239.6.349,3.984,2.023,8.99.166,11.183-4.148s.736-9.454-3.248-11.475c-.208-.1-.418-.194-.629-.278A50.362,50.362,0,0,0,482,2045,5.633,5.633,0,0,0,482.682,2044.977Z" transform="translate(-352.518 -1645.9)" fill="url(#linear-gradient-32)"/>
        <path id="Path_7577" data-name="Path 7577" d="M297.178,2026.406c3.986,2.023,8.992.166,11.183-4.148s.737-9.453-3.248-11.477c-.206-.1-.418-.192-.627-.276a50.606,50.606,0,0,0,1.672-7.2,6.489,6.489,0,0,0,.69-.025,9.171,9.171,0,0,0,8.059-9.331,7.763,7.763,0,0,0-8.4-7.863c-.238.021-.472.058-.7.1a46.108,46.108,0,0,0-1.947-6.876c.21-.122.418-.25.622-.391a9.17,9.17,0,0,0,2.777-12.013,7.763,7.763,0,0,0-11.307-2.144c-.2.14-.386.29-.573.444a41.059,41.059,0,0,0-5.043-4.718c.128-.21.253-.423.367-.646,2.191-4.314.736-9.452-3.248-11.475s-8.99-.164-11.183,4.15c-.114.224-.211.451-.306.678a41.226,41.226,0,0,0-6.776-1.295c.014-.24.024-.481.019-.724a7.763,7.763,0,0,0-8.4-7.863,9.167,9.167,0,0,0-8.059,9.331,7.209,7.209,0,0,0,.051.732,46.251,46.251,0,0,0-6.7,2.487c-.1-.213-.21-.423-.334-.627a7.763,7.763,0,0,0-11.307-2.144,9.167,9.167,0,0,0-2.777,12.012c.121.2.252.388.386.573a50.72,50.72,0,0,0-4.826,5.592c-.192-.121-.388-.238-.594-.35-3.984-2.023-8.99-.175-11.183,4.148s-.739,9.471,3.245,11.5c.206.1.418.194.629.278a50.374,50.374,0,0,0-1.672,7.2,6.737,6.737,0,0,0-.7.025,9.171,9.171,0,0,0-8.059,9.331,7.764,7.764,0,0,0,8.4,7.863c.238-.021.47-.059.7-.1a46.38,46.38,0,0,0,1.947,6.876c-.21.122-.418.248-.62.391a9.167,9.167,0,0,0-2.778,12.012,7.765,7.765,0,0,0,11.307,2.146c.2-.14.388-.292.573-.444a41.054,41.054,0,0,0,5.043,4.708c-.128.211-.253.423-.367.646-2.189,4.314-.736,9.454,3.248,11.475s8.992.166,11.183-4.149c.114-.223.211-.451.306-.678a41.035,41.035,0,0,0,6.778,1.293c-.014.241-.026.48-.021.725a7.766,7.766,0,0,0,8.4,7.864,9.168,9.168,0,0,0,8.059-9.331,7.224,7.224,0,0,0-.049-.732,46.4,46.4,0,0,0,6.7-2.487c.1.212.211.423.334.627a7.764,7.764,0,0,0,11.307,2.144,9.168,9.168,0,0,0,2.778-12.013c-.121-.2-.253-.386-.388-.571a50.419,50.419,0,0,0,4.826-5.592C296.776,2026.179,296.972,2026.3,297.178,2026.406Zm-49.671.631c-14.468-7.339-19.746-26-11.795-41.665s26.129-22.41,40.6-15.064,19.746,26,11.793,41.665-26.129,22.4-40.6,15.061Z" transform="translate(-172.397 -1603.712)" fill="url(#linear-gradient-33)"/>
        <path id="Path_7578" data-name="Path 7578" d="M933.216,2336.826a5.962,5.962,0,0,0,5.38-10.6c-.142-.07-.283-.131-.426-.187a34.3,34.3,0,0,0,1.134-4.892,4.128,4.128,0,0,0,.468-.018,6.217,6.217,0,0,0,5.466-6.327,5.267,5.267,0,0,0-5.7-5.333c-.161.014-.32.038-.477.066a31.455,31.455,0,0,0-1.319-4.662c.141-.084.283-.175.421-.266a6.221,6.221,0,0,0,1.884-8.148,5.265,5.265,0,0,0-7.669-1.454c-.136.094-.262.2-.388.3a27.721,27.721,0,0,0-3.421-3.193c.087-.143.175-.288.25-.438,1.485-2.927,3.427-6.116.7-7.453-6.3-3.076-9-.442-10.484,2.483-.077.152-.143.306-.208.46a28,28,0,0,0-4.6-.874c0-.163.017-.325.014-.491-.065-3.22.891-4.962-2.205-5.022-6.748-.131-9.025,2.8-8.961,6.018a4.551,4.551,0,0,0,.035.5,31.33,31.33,0,0,0-4.543,1.687c-.07-.144-.143-.287-.227-.425a5.264,5.264,0,0,0-7.668-1.456,6.219,6.219,0,0,0-1.884,8.148c.08.135.175.262.262.388a33.924,33.924,0,0,0-3.273,3.8c-.131-.082-.264-.163-.4-.232a5.961,5.961,0,0,0-5.38,10.6c.14.072.283.131.426.189a34.276,34.276,0,0,0-1.134,4.882,4.186,4.186,0,0,0-.468.018,6.217,6.217,0,0,0-5.466,6.329,5.268,5.268,0,0,0,5.7,5.333c.161-.014.318-.04.475-.068a31.552,31.552,0,0,0,1.321,4.664c-.142.082-.283.175-.421.266a6.216,6.216,0,0,0-1.884,8.146c1.6,2.651,6.886,3.883,9.525,2.035.135-.1-1.594-.777-1.468-.882a27.875,27.875,0,0,0,3.421,3.194c-.087.142-.175.286-.25.439a5.505,5.505,0,1,0,9.787,4.968c.077-.152.143-.306.206-.459a27.892,27.892,0,0,0,4.6.874c-.01.162-.017.326-.014.491a5.268,5.268,0,0,0,5.7,5.333,6.221,6.221,0,0,0,5.466-6.329,4.576,4.576,0,0,0-.035-.5,31.23,31.23,0,0,0,4.543-1.686c.072.145.143.287.227.427a5.265,5.265,0,0,0,7.669,1.454,6.217,6.217,0,0,0,1.884-8.146c-.082-.136-.175-.264-.262-.39a34.25,34.25,0,0,0,3.273-3.8A3.243,3.243,0,0,0,933.216,2336.826Zm-33.69.427c-9.812-4.982-13.392-17.634-8-28.257s17.72-15.2,27.532-10.217,13.394,17.633,8,28.257-17.722,15.2-27.534,10.221Z" transform="translate(-720.744 -1882.235)" fill="url(#linear-gradient-34)"/>
        <path id="Path_7579" data-name="Path 7579" d="M1075.592,2349.8a6.218,6.218,0,0,0,5.466-6.327,5.268,5.268,0,0,0-5.7-5.333c-.161.014-.32.038-.477.066a31.467,31.467,0,0,0-1.319-4.662c.142-.084.283-.175.421-.266,2.637-1.849,5.9-6.313,4.04-8.788-3.533-4.693-7.189-2.663-9.825-.814-.136.094-.262.2-.388.3a27.74,27.74,0,0,0-3.421-3.192c.087-.144.175-.289.25-.438a6.143,6.143,0,0,0,.349-4.842q-3.821,6.729-7.53,13.516c7.828,5.735,10.32,17.039,5.428,26.676-4.147,8.167-12.387,12.756-20.445,12.177-.349.931-.711,1.868-1.1,2.8-1.048,2.5-2.228,4.954-3.415,7.4q1.119.214,2.247.331c-.01.162-.017.326-.014.491.065,3.22,2.02,5.957,7.608,5.66,3.09-.164,3.622-3.435,3.558-6.656a4.523,4.523,0,0,0-.035-.5,31.255,31.255,0,0,0,4.543-1.686c.072.145.143.286.227.426,1.6,2.651,7.14,3.778,9.785,1.922s1.372-5.971-.225-8.621c-.082-.137-.175-.264-.262-.39a34.327,34.327,0,0,0,3.273-3.8c.131.082.264.163.4.234a5.962,5.962,0,0,0,5.38-10.6c-.142-.07-.283-.131-.426-.187a34.265,34.265,0,0,0,1.134-4.893A3.157,3.157,0,0,0,1075.592,2349.8Z" transform="translate(-856.563 -1910.891)" fill="url(#linear-gradient-35)"/>
        <path id="Path_7580" data-name="Path 7580" d="M949.83,2337.206a5.962,5.962,0,0,0,5.38-10.6c-.14-.07-.283-.129-.426-.187a34.309,34.309,0,0,0,1.134-4.884,4.185,4.185,0,0,0,.468-.018,6.215,6.215,0,0,0,5.466-6.327,5.267,5.267,0,0,0-5.7-5.333c-.161.014-.318.04-.475.068a31.419,31.419,0,0,0-1.321-4.664c.142-.084.283-.175.421-.266a6.218,6.218,0,0,0,1.884-8.148,5.265,5.265,0,0,0-7.669-1.454c-.135.094-.262.2-.388.3a27.694,27.694,0,0,0-3.421-3.192c.087-.143.175-.287.25-.439a5.506,5.506,0,1,0-9.787-4.969c-.077.152-.143.306-.206.46a28,28,0,0,0-4.6-.874c.01-.162.017-.325.014-.491a5.269,5.269,0,0,0-5.7-5.333,6.222,6.222,0,0,0-5.466,6.329,4.56,4.56,0,0,0,.035.5,31.4,31.4,0,0,0-4.543,1.686c-.072-.143-.143-.287-.227-.425a5.264,5.264,0,0,0-7.669-1.454,6.217,6.217,0,0,0-1.884,8.147c.082.136.175.262.262.388a34.606,34.606,0,0,0-3.273,3.8c-.131-.082-.262-.161-.4-.232a5.961,5.961,0,0,0-5.38,10.6c.141.072.283.131.426.189a34.211,34.211,0,0,0-1.134,4.884c-.155,0-.311,0-.468.016a6.22,6.22,0,0,0-5.466,6.329,5.268,5.268,0,0,0,5.7,5.333c.161-.014.32-.04.477-.068a31.478,31.478,0,0,0,1.319,4.664c-.142.082-.283.175-.421.266a6.218,6.218,0,0,0-1.884,8.146,5.268,5.268,0,0,0,7.669,1.456c.136-.1.262-.2.388-.3a27.809,27.809,0,0,0,3.421,3.2c-.087.142-.175.286-.25.439a5.505,5.505,0,1,0,9.787,4.968c.077-.15.143-.306.208-.46a27.766,27.766,0,0,0,4.6.874c0,.163-.017.327-.014.491a5.268,5.268,0,0,0,5.7,5.333,6.22,6.22,0,0,0,5.466-6.328,4.518,4.518,0,0,0-.035-.5,31.557,31.557,0,0,0,4.543-1.686c.07.143.143.287.227.425a5.264,5.264,0,0,0,7.667,1.454,6.217,6.217,0,0,0,1.884-8.146c-.08-.136-.175-.264-.262-.388a34.094,34.094,0,0,0,3.273-3.8C949.555,2337.055,949.69,2337.131,949.83,2337.206Zm-33.688.426c-9.813-4.981-13.394-17.626-8-28.257s17.722-15.2,27.534-10.217,13.392,17.633,8,28.257-17.72,15.2-27.532,10.217Z" transform="translate(-734.451 -1882.285)" fill="url(#linear-gradient-36)"/>
        <path id="Path_7581" data-name="Path 7581" d="M709.023,1031.907a2.943,2.943,0,0,1-3.013-2.889V989.052a2.993,2.993,0,0,1,2.936-3h31.871a2.9,2.9,0,0,1,2.859,2.929,2.835,2.835,0,0,1-2.782,2.92l-28.865.079v36.947A3.059,3.059,0,0,1,709.023,1031.907Z" transform="translate(-582.642 -813.749)" fill="url(#linear-gradient-37)"/>
        <path id="Path_7582" data-name="Path 7582" d="M740.815,1712.248l-31.871,1.968a2.73,2.73,0,0,1-2.936-2.757v-39.972a3.172,3.172,0,0,1,3.012-3.068,2.843,2.843,0,0,1,3.006,2.8v36.968l28.865-1.725a2.652,2.652,0,0,1,2.82,2.726A3.145,3.145,0,0,1,740.815,1712.248Z" transform="translate(-582.641 -1376.876)" fill="url(#linear-gradient-38)"/>
        <path id="Path_7583" data-name="Path 7583" d="M1404.639,1029.417c-1.45.025-2.109-1.2-2.109-2.734V991.67l-26.854.059a2.9,2.9,0,0,1-2.836-2.836,2.656,2.656,0,0,1,2.534-2.843h29.182c1.447,0,2.191,1.3,2.191,2.836V1026.6C1406.741,1028.129,1406.086,1029.392,1404.639,1029.417Z" transform="translate(-1132.951 -813.749)" fill="url(#linear-gradient-39)"/>
        <path id="Path_7584" data-name="Path 7584" d="M1403.369,1674.7l-29.068,1.8a2.512,2.512,0,0,1-2.632-2.644,3.257,3.257,0,0,1,3.014-2.971l26.88-1.573v-35.011c0-1.534.659-2.833,2.109-2.9s2.1,1.124,2.1,2.656v37.712A2.727,2.727,0,0,1,1403.369,1674.7Z" transform="translate(-1131.985 -1346.335)" fill="url(#linear-gradient-40)"/>
        <path id="Path_7585" data-name="Path 7585" d="M1844.2,329.815c0-32.521-30-57.909-65.726-56.747-20.347.662-38.05,9.834-49.1,23.375v-.012c-.068.084-.131.175-.2.257-.192.236-.376.477-.565.718-.341.437-.676.874-1,1.321q-.29.395-.573.8-.473.666-.924,1.345c-.175.26-.35.524-.524.779-.337.524-.66,1.048-.979,1.587-.115.194-.236.383-.349.577q-.629,1.085-1.208,2.195c-.1.2-.2.4-.3.6-.279.556-.554,1.113-.814,1.677-.129.278-.25.557-.374.835q-.33.75-.64,1.51-.175.44-.349.884c-.2.524-.388,1.048-.571,1.573-.1.274-.2.549-.287.827q-.327.994-.612,2c-.04.14-.087.278-.126.419q-.335,1.223-.61,2.446c-.054.241-.1.487-.15.73-.124.592-.239,1.185-.35,1.782-.052.3-.1.61-.145.914-.086.554-.163,1.108-.229,1.665-.037.313-.073.626-.107.94-.059.587-.1,1.18-.145,1.772-.018.276-.042.55-.056.828-.044.874-.072,1.735-.072,2.621,0,20.869,12.639,39.276,31.588,49.133q2.621,1.358,5.385,2.5,1.386.571,2.812,1.082a69.785,69.785,0,0,0,21.573,4.038h0q1.573.044,3.145.021c.349,0,.7-.024,1.048-.035.689-.021,1.377-.04,2.062-.08.417-.024.832-.063,1.248-.094.612-.045,1.223-.093,1.828-.154.444-.045.884-.1,1.326-.156.573-.068,1.146-.14,1.714-.222.454-.066.905-.142,1.356-.217q.825-.136,1.644-.29.687-.131,1.365-.276l1.594-.349q.681-.161,1.356-.332c.524-.136,1.049-.278,1.56-.425.446-.126.89-.253,1.332-.388.162-.049.328-.091.491-.142l-.011-.012C1826.252,375.875,1844.2,354.885,1844.2,329.815Z" transform="translate(-1417.071 -225.322)" fill="url(#linear-gradient-41)"/>
        <path id="Path_7586" data-name="Path 7586" d="M1819.133,330.472c0,32.437-29.844,57.862-65.395,56.822-34.226-1-61.049-26.331-61.049-56.616s26.823-55.7,61.049-56.815C1789.29,272.717,1819.133,298.04,1819.133,330.472Z" transform="translate(-1396.91 -225.978)" fill="url(#linear-gradient-42)"/>
        <path id="Path_7587" data-name="Path 7587" d="M1881.559,488.406a7.3,7.3,0,0,1-6.271-3.594l-22.239-37.487a7.465,7.465,0,0,1,2.5-10.17,7.266,7.266,0,0,1,10.039,2.537l15.437,26.022,20.406-40.594a7.275,7.275,0,0,1,9.84-3.241,7.456,7.456,0,0,1,3.2,9.96l-26.395,52.518a7.313,7.313,0,0,1-6.264,4.043Z" transform="translate(-1528.383 -347.498)" fill="#fff"/>
        <g id="Group_2449" data-name="Group 2449" transform="translate(295.78 71.197)" opacity="0.1">
          <path id="Path_7588" data-name="Path 7588" d="M1769.2,483.458c-7.715-16.983.085-32.676-10.331-43.569-10.463-10.942-23.882-.715-38.107-9.469-5.44-3.35-11.449-9.756-15.891-22.97a52.855,52.855,0,0,0-12.181,33.512c0,30.281,26.822,55.613,61.049,56.616a69.763,69.763,0,0,0,22.95-3.145,39.071,39.071,0,0,1-7.489-10.974Z" transform="translate(-1692.69 -407.45)" fill="url(#linear-gradient-43)"/>
        </g>
      </g>
    </g>
  </g>
</svg>
